<?xml version="1.0" encoding="utf-8"?>
<!-- Generator: Adobe Illustrator 17.1.0, SVG Export Plug-In . SVG Version: 6.00 Build 0)  -->
<!DOCTYPE svg PUBLIC "-//W3C//DTD SVG 1.1//EN" "http://www.w3.org/Graphics/SVG/1.1/DTD/svg11.dtd">
<svg version="1.1" id="Слой_1" xmlns="http://www.w3.org/2000/svg" xmlns:xlink="http://www.w3.org/1999/xlink" x="0px" y="0px"
	 viewBox="0 0 30 30" enable-background="new 0 0 30 30" xml:space="preserve">
<circle fill="#DEE5EB" cx="10.5" cy="10.5" r="9.3"/>
<path fill="#CFD9E1" d="M17.1,3.9c3.7,3.7,3.7,9.5,0,13.1S7.6,20.7,4,17l0,0C14.5,17.1,17.1,14.4,17.1,3.9L17.1,3.9z"/>
<path fill="#515151" d="M21,10.5C21,4.7,16.3,0,10.5,0S0,4.7,0,10.5S4.7,21,10.5,21c2.5,0,4.7-0.8,6.5-2.3l1.3,1.3l1.7-1.7L18.7,17
	C20.2,15.2,21,13,21,10.5z M1.8,10.5c0-4.8,3.9-8.7,8.7-8.7s8.7,3.9,8.7,8.7s-3.9,8.7-8.7,8.7S1.8,15.3,1.8,10.5z"/>
<path fill="#403730" d="M19,18.2l-2.1,2.1c-0.5,0.5-0.5,1.2,0,1.7l7.6,7.6c0.5,0.5,1.2,0.5,1.7,0l2.1-2.1L19,18.2z"/>
<path fill="#544A42" d="M27.8,28l1.7-1.7c0.5-0.5,0.5-1.2,0-1.7l-7.7-7.6c-0.5-0.5-1.2-0.5-1.7,0l-1.7,1.7L27.8,28z"/>
</svg>
