<?xml version="1.0" encoding="utf-8"?>
<!-- Generator: Adobe Illustrator 17.1.0, SVG Export Plug-In . SVG Version: 6.00 Build 0)  -->
<!DOCTYPE svg PUBLIC "-//W3C//DTD SVG 1.1//EN" "http://www.w3.org/Graphics/SVG/1.1/DTD/svg11.dtd">
<svg version="1.1" id="Слой_1" xmlns="http://www.w3.org/2000/svg" xmlns:xlink="http://www.w3.org/1999/xlink" x="0px" y="0px"
	 viewBox="0 0 48 48" enable-background="new 0 0 48 48" xml:space="preserve">
<g>
	<path d="M46,12H2c-1.1,0-2-0.9-2-2s0.9-2,2-2h44c1.1,0,2,0.9,2,2S47.1,12,46,12z"/>
</g>
<g>
	<path d="M46,26H2c-1.1,0-2-0.9-2-2s0.9-2,2-2h44c1.1,0,2,0.9,2,2S47.1,26,46,26z"/>
</g>
<g>
	<path d="M46,40H2c-1.1,0-2-0.9-2-2s0.9-2,2-2h44c1.1,0,2,0.9,2,2S47.1,40,46,40z"/>
</g>
</svg>
