<?xml version="1.0" encoding="utf-8"?>
<!-- Generator: Adobe Illustrator 17.1.0, SVG Export Plug-In . SVG Version: 6.00 Build 0)  -->
<!DOCTYPE svg PUBLIC "-//W3C//DTD SVG 1.1//EN" "http://www.w3.org/Graphics/SVG/1.1/DTD/svg11.dtd">
<svg version="1.1" id="Слой_1" xmlns="http://www.w3.org/2000/svg" xmlns:xlink="http://www.w3.org/1999/xlink" x="0px" y="0px"
	 viewBox="0 0 48 48" enable-background="new 0 0 48 48" xml:space="preserve">
<path fill="#373534" d="M34.3,47.4c-0.7,0-1.2-0.1-1.7-0.3c-2.3-0.5-24.9-5.9-29-33.6c0-0.1,0-0.1,0-0.2c0-8.4,5-11.7,7.8-12.4
	c0.3-0.1,1-0.3,1.9-0.3c0.7,0,1.4,0.1,2,0.3c2.3,0.8,7.1,4.4,7,10.8c-0.1,4.9-3,7.6-4.5,8.8c0.4,1.6,2,5.7,8.4,11
	c1.5-1.2,3.3-1.7,3.9-1.9c0.4-0.2,1.6-0.5,3.2-0.5c1.1,0,2.2,0.2,3.3,0.6c3.3,1.2,8.2,5.2,8.2,9.9C44.6,44.1,37.9,47.4,34.3,47.4z
	 M6.5,13.1C10.6,39.9,32.3,44,33.2,44.1c0.1,0,0.3,0.1,0.4,0.1c0.1,0,0.2,0.1,0.7,0.1c2.8,0,7.4-2.7,7.4-4.8c0-3.1-3.7-6.2-6.2-7.1
	c-0.7-0.3-1.5-0.4-2.2-0.4c-1.3,0-2.2,0.4-2.2,0.4c-0.1,0-0.2,0.1-0.3,0.1c-0.6,0.1-2.5,0.8-3.4,1.9c-0.2,0.3-0.6,0.5-1,0.6
	c-0.4,0-0.8-0.1-1.1-0.3c-10.5-8.3-10.7-14.3-10.7-15c0-0.5,0.3-1.1,0.8-1.3c0.1-0.1,3.8-2.1,3.9-6.8c0.1-5.1-3.9-7.5-4.9-7.9
	c-0.4-0.1-0.7-0.2-1.1-0.2c-0.5,0-0.8,0.1-0.8,0.1c-0.1,0-0.2,0.1-0.3,0.1C11.9,3.8,6.5,5.1,6.5,13.1z"/>
</svg>
