<?xml version="1.0" encoding="utf-8"?>
<!-- Generator: Adobe Illustrator 17.1.0, SVG Export Plug-In . SVG Version: 6.00 Build 0)  -->
<!DOCTYPE svg PUBLIC "-//W3C//DTD SVG 1.1//EN" "http://www.w3.org/Graphics/SVG/1.1/DTD/svg11.dtd">
<svg version="1.1" id="Слой_1" xmlns="http://www.w3.org/2000/svg" xmlns:xlink="http://www.w3.org/1999/xlink" x="0px" y="0px"
	 viewBox="0 0 30 40" enable-background="new 0 0 30 40" xml:space="preserve">
<path id="BG_WHITE_CIRCLE" fill="#FFFFFF" d="M15,0c8.3,0,15,6.7,15,15S16.1,40,15,40C14,40,0,23.3,0,15S6.7,0,15,0z"/>
<radialGradient id="SVGID_1_" cx="60" cy="-30" r="50" gradientTransform="matrix(0.25 0 0 -0.25 0 7.5)" gradientUnits="userSpaceOnUse">
	<stop  offset="0" style="stop-color:#EFEFEF"/>
	<stop  offset="0.6146" style="stop-color:#EDEDED"/>
	<stop  offset="0.8358" style="stop-color:#E6E6E5"/>
	<stop  offset="0.993" style="stop-color:#D9DADA"/>
	<stop  offset="1" style="stop-color:#D9D9D9"/>
</radialGradient>
<circle fill="url(#SVGID_1_)" cx="15" cy="15" r="12.5"/>
<g id="С_прозрачностью">
	<path fill="#C25546" d="M16,18.1c-0.1-0.1-0.1-0.2,0-0.3c0.1-0.5,0.6-1,1-1.5c-0.3-0.2-0.6-0.5-0.8-0.8c-0.4,0-0.6,0.2-0.9,0.3
		c-0.1,0.1-0.1,0.1-0.2,0.1C15.1,16,15,16,15,16c-0.2,0.1-0.6,0.3-0.9,0.3c0,0-0.1,0-0.1,0c-0.1,0.2-0.2,0.5-0.3,0.8
		c0,0.2,0,0.2,0.1,0.3c0,0,0,0,0.1,0c0,0,0.1,0,0.1,0c0.1,0,0.1,0,0.1,0c0.1,0,0.2,0,0.2,0.2c0,0.2,0,0.4-0.1,0.5H16z"/>
	<path fill="#C5D455" d="M13.9,18.1c0.1-0.1,0.1-0.3,0.1-0.6c0-0.1,0-0.1-0.1-0.1c0,0-0.1,0-0.1,0c-0.1,0-0.2,0-0.3,0
		c0-0.1-0.1-0.2-0.1-0.4c0-0.3,0.1-0.6,0.2-0.8c-0.2-0.1-0.3-0.2-0.4-0.4c-0.1-0.1-0.1-0.1-0.1-0.2c-0.2,0.1-0.4,0.1-0.6,0.1l0,0
		c-0.2,0-0.5-0.1-0.6-0.1L11.8,16c0.3,0.1,0.8,0.4,1.1,0.8c0.1,0.2,0.2,0.5,0.2,0.9L13.9,18.1z"/>
	<path fill="#B47B94" d="M15.1,15.8c0.1,0,0.1-0.1,0.2-0.1c0.2-0.1,0.5-0.3,0.9-0.3C16,15.2,16,15,15.9,14.9
		c-0.6-0.1-1.1-0.3-1.5-0.5c-0.1,0.2-0.3,0.4-0.5,0.4c-0.1,0.4-0.4,0.6-0.6,0.8c0.1,0.1,0.1,0.1,0.1,0.2c0.1,0.2,0.3,0.3,0.6,0.3
		c0.3,0,0.6-0.2,0.9-0.3C15,15.8,15,15.8,15.1,15.8z"/>
	<path fill="#96C4DD" d="M17.3,18.3c1,0,2.2-0.2,2.6-0.3l-1.1-1.8c-0.1,0.2-0.4,0.3-0.7,0.3c-0.1,0-0.1,0-0.2,0l0,0
		c-0.3,0-0.6,0-0.8-0.1c-0.5,0.5-0.9,1-1,1.5c0,0.1,0,0.1,0,0.2C16.2,18.1,16.5,18.3,17.3,18.3z"/>
	<path fill="#F1E081" d="M11.5,16l-1.1,2c0.2,0.1,0.9,0.3,1.6,0.3c0.5,0,0.8-0.1,0.9-0.4c0.1-0.4,0.1-0.7-0.1-1
		C12.4,16.3,11.7,16.1,11.5,16z"/>
	<path fill="#C5D455" d="M18,16.4L18,16.4c0,0,0.1,0,0.2,0c0.4,0,0.6-0.1,0.6-0.3c0.1-0.4-0.5-1.3-1-1.9c-0.1,0.3-0.4,0.6-0.7,0.7
		c-0.2,0.1-0.4,0.1-0.6,0.1c-0.1,0-0.2,0-0.3,0c0,0.1,0.1,0.2,0.1,0.3C16.6,16,17.2,16.4,18,16.4z"/>
	<path fill="#F1E081" d="M17,12.4c-0.4,0.4-1.2,1.1-2.4,1.2c0,0.2-0.1,0.5-0.1,0.7c0.6,0.3,1.8,0.7,2.5,0.4c0.3-0.1,0.5-0.3,0.6-0.6
		c0.1-0.4,0.1-1-0.1-1.4l0,0.5l-0.2,0C17.4,12.9,17.2,12.6,17,12.4z"/>
	<path fill="#96C4DD" d="M12.7,13.3C12.7,13.3,12.7,13.3,12.7,13.3l-0.8,2.1c0.1,0.1,0.4,0.1,0.7,0.1l0,0c0.6,0,0.9-0.3,1.1-0.8
		c0,0-0.1,0-0.1,0C13,14.6,12.8,13.5,12.7,13.3z"/>
	<path fill="#C5D455" d="M16.3,11.5c-0.3-0.3-0.6-0.6-0.8-0.8h0l0,0c-0.3,0-0.6-0.1-0.9-0.3c-0.1,0.2-0.1,0.5-0.1,0.8
		c0.1,0.3-0.1,0.6-0.2,0.8C14.9,11.7,15.7,11.5,16.3,11.5z"/>
	<path fill="#C25546" d="M12.9,13.1C12.9,13.1,12.9,13.1,12.9,13.1v0.2c0,0.1,0.3,1.2,0.8,1.3c0.1,0,0.1,0,0.2,0
		c0.4,0,0.5-0.6,0.6-1.2c0-0.3-0.3-0.6-0.6-0.9c-0.2,0.2-0.4,0.3-0.6,0.4c-0.1,0.1-0.2,0.1-0.2,0.1c0,0.1-0.1,0.1-0.1,0.1H12.9
		L12.9,13.1z"/>
	<path fill="#B47B94" d="M14.7,13.4c1.1-0.1,1.9-0.8,2.3-1.1c-0.1-0.2-0.3-0.4-0.4-0.6c0,0-0.1,0-0.1,0c-0.6,0-1.6,0.3-2.3,0.6
		c0,0-0.1,0.1-0.1,0.1C14.4,12.6,14.7,13,14.7,13.4z"/>
	<path fill="#96C4DD" d="M17.3,11.7l-0.1-1.6l-0.6,0.1c-0.2,0.3-0.5,0.4-0.8,0.5c0.4,0.4,0.9,0.8,1.3,1.4c0,0,0-0.1,0-0.1l0-0.2
		c0,0,0.1,0.1,0.1,0.1c0.1,0.1,0.1,0.1,0.1,0.2c0-0.1-0.1-0.2-0.1-0.2l0-0.1L17.3,11.7L17.3,11.7z"/>
	<path fill="#F1E081" d="M13.2,12.8c0.4-0.3,1.2-0.9,1.1-1.6c-0.1-0.3,0-0.6,0.1-0.9c-0.3-0.2-0.6-0.6-0.8-0.9
		c-0.1,0.1-0.1,0.1-0.2,0.1l-0.1,0c-0.1,1.3-0.2,2.8-0.3,3.3C13.1,12.8,13.1,12.8,13.2,12.8z"/>
	<path fill="#B47B94" d="M15.6,7.7C15.6,7.7,15.5,7.7,15.6,7.7c-0.1,0-0.2,0-0.2,0.1c0,0-0.1,0.1-0.1,0.2c0.1,1.5,0.9,1.8,1.3,1.9
		c0-0.1,0.1-0.1,0.1-0.1h0.1V9.6c0,0,0,0,0.1,0V9.4V8.5V8.3V8.2c0,0-0.8-0.5-1.3-0.6C15.6,7.7,15.6,7.7,15.6,7.7z"/>
	<path fill="#C5D455" d="M14.5,7.5c-0.4,0-0.8,0.1-1,0.2v1.6C13.9,9.1,15,8.6,15,7.9c0-0.1,0-0.2-0.1-0.2
		C14.9,7.6,14.7,7.5,14.5,7.5z"/>
	<path fill="#C25546" d="M13.8,9.4c0.4,0.5,1,1.1,1.7,1.1l0,0c0.3,0,0.7-0.2,0.9-0.5C16.2,10,16.1,9.9,16,9.8
		c-0.5-0.3-0.8-0.9-0.9-1.6C14.9,8.8,14.2,9.2,13.8,9.4z"/>
	<path fill="#363433" d="M20.6,17.6c0,0-3.4-3-3.4-10.2c0-0.2-0.2-0.5-0.5-0.5h-2.1h-0.2h-1C13.2,7,13,7.2,13,7.4
		c0,7.2-3.3,10.1-3.4,10.2c-0.2,0.2-0.2,0.4-0.1,0.8c0,0,0.3,1.2,0.4,3c0,0.2,0.2,0.4,0.4,0.4h0.2h0.2h0.2h0.2
		c0.2,0,0.4-0.2,0.4-0.4c-0.1-1.5-0.6-2.7-0.9-3.2c0.9-0.9,3.3-4,3.4-10.2h0.6h0.2h1.7c0.1,6.2,2.5,9.3,3.4,10.2
		c-0.3,0.6-0.8,1.8-0.9,3.2c0,0.2,0.1,0.4,0.4,0.4H20c0.2,0,0.4-0.2,0.4-0.4c0-1.7,0.3-3,0.4-3C20.9,18,20.9,17.9,20.6,17.6z"/>
	<g>
		<path fill="#363433" d="M15.7,17.8h-1c-0.1,0-0.3-0.1-0.4-0.2l-0.4-1.1c-0.1-0.2,0.1-0.5,0.4-0.5h1.9c0.3,0,0.5,0.3,0.4,0.5
			L16,17.5C16,17.7,15.9,17.8,15.7,17.8z"/>
	</g>
	<rect x="10.3" y="17.6" fill="#363433" width="9.8" height="0.9"/>
	<g>
		<path fill="#363433" d="M14.9,14.8c0.1,0.4,0,0.9-0.1,0.9s-0.4-0.3-0.5-0.7c-0.1-0.4,0-0.9,0.1-0.9C14.6,14.1,14.8,14.4,14.9,14.8
			z"/>
	</g>
	<g>
		<path fill="#363433" d="M16.2,14.5c-0.2,0.6-0.7,1.3-0.8,1.2c-0.2-0.1-0.3-0.8-0.1-1.5c0.2-0.6,0.6-1.3,0.8-1.2
			C16.3,13.1,16.4,13.9,16.2,14.5z"/>
	</g>
</g>
<path opacity="0.3" fill="#FFFFFF" enable-background="new    " d="M27.5,15c-4.9-9.9-20-10-25,0C2.5,8.1,8.1,2.5,15,2.5
	S27.5,8.1,27.5,15z"/>
</svg>
