<?xml version="1.0" encoding="utf-8"?>
<!-- Generator: Adobe Illustrator 17.1.0, SVG Export Plug-In . SVG Version: 6.00 Build 0)  -->
<!DOCTYPE svg PUBLIC "-//W3C//DTD SVG 1.1//EN" "http://www.w3.org/Graphics/SVG/1.1/DTD/svg11.dtd">
<svg version="1.1" id="Слой_1" xmlns="http://www.w3.org/2000/svg" xmlns:xlink="http://www.w3.org/1999/xlink" x="0px" y="0px"
	 viewBox="0 0 543 564" enable-background="new 0 0 543 564" xml:space="preserve">
<path fill="#FFFFFF" d="M540.7,556.1c0,3.9-3.1,7-7,7l-87-2l-128.9,2.9l-171.9-1.1L7.7,563.1c-3.9,0-7-3.1-7-7v-51.9l1-42.6
	l0.7-130.6L1,268v-58L-0.3,93.8l1-83.8c0-3.9,3.1-7,7-7l89-0.5l114-0.6l151-1.9l125.5,3l46.5,0c3.9,0,7,3.1,7,7l1,114.3l1.2,65.8
	L542,210v58l-0.1,21.8l-0.1,16l-0.8,66.7l-1.3,110.2L540.7,556.1z"/>
<linearGradient id="SVGID_1_" gradientUnits="userSpaceOnUse" x1="2.253" y1="353.25" x2="542.2408" y2="353.25">
	<stop  offset="0" style="stop-color:#BB5849"/>
	<stop  offset="1" style="stop-color:#F7DF48"/>
</linearGradient>
<polygon fill="url(#SVGID_1_)" points="2.3,415 541.1,396.1 542.2,291.5 2.5,310.4 "/>
<g opacity="0.3">
	<path fill="#FFFFFF" d="M15.4,310l-0.6,0c0.1,0,0.1,0,0.2,0C15.1,310,15.3,310,15.4,310z"/>
	<path fill="#FFFFFF" d="M37.7,309.2l-5.1,0.2c0.7,0.4,1.5,0.6,2.4,0.6C36,310,37,309.7,37.7,309.2z"/>
	<path fill="#FFFFFF" d="M58.6,308.4l-7,0.2c0.9,0.8,2.1,1.3,3.3,1.3C56.4,310,57.7,309.4,58.6,308.4z"/>
	<path fill="#FFFFFF" d="M75,310c1.8,0,3.3-0.9,4.2-2.3L71,308C71.9,309.2,73.4,310,75,310z"/>
	<path fill="#FFFFFF" d="M95,310c2,0,3.8-1.2,4.6-3l-9,0.3C91.4,308.9,93.1,310,95,310z"/>
	<path fill="#FFFFFF" d="M115,310c2.3,0,4.2-1.6,4.8-3.7l-9.5,0.3C111,308.6,112.8,310,115,310z"/>
	<path fill="#FFFFFF" d="M135,310c2.6,0,4.6-1.9,4.9-4.4l-9.8,0.3C130.5,308.3,132.6,310,135,310z"/>
	<path fill="#FFFFFF" d="M155,310c2.8,0,5-2.2,5-5c0,0,0-0.1,0-0.1l-10,0.3C150.2,307.9,152.3,310,155,310z"/>
	<path fill="#FFFFFF" d="M175,310c2.8,0,5-2.2,5-5c0-0.3,0-0.5-0.1-0.8l-9.9,0.3c0,0.2,0,0.3,0,0.5C170,307.8,172.2,310,175,310z"/>
	<path fill="#FFFFFF" d="M195,310c2.8,0,5-2.2,5-5c0-0.5-0.1-1-0.3-1.5l-9.6,0.3c-0.1,0.4-0.1,0.8-0.1,1.2
		C190,307.8,192.2,310,195,310z"/>
	<path fill="#FFFFFF" d="M215,310c2.8,0,5-2.2,5-5c0-0.8-0.2-1.5-0.5-2.2l-9.1,0.3c-0.2,0.6-0.4,1.2-0.4,1.9
		C210,307.8,212.2,310,215,310z"/>
	<line fill="#FFFFFF" x1="230.7" y1="302.4" x2="239.1" y2="302.1"/>
	<path fill="#FFFFFF" d="M235,310c2.8,0,5-2.2,5-5c0-1.1-0.3-2.1-0.9-2.9l-8.3,0.3c-0.5,0.8-0.7,1.6-0.7,2.6
		C230,307.8,232.2,310,235,310z"/>
	<line fill="#FFFFFF" x1="251.3" y1="301.7" x2="258.5" y2="301.4"/>
	<path fill="#FFFFFF" d="M255,310c2.8,0,5-2.2,5-5c0-1.4-0.6-2.7-1.5-3.6l-7.2,0.3c-0.8,0.9-1.3,2-1.3,3.3
		C250,307.8,252.2,310,255,310z"/>
	<line fill="#FFFFFF" x1="272.1" y1="301" x2="277.6" y2="300.8"/>
	<path fill="#FFFFFF" d="M270,305c0,2.8,2.2,5,5,5s5-2.2,5-5c0-1.8-0.9-3.3-2.4-4.2l-5.6,0.2C270.8,301.9,270,303.3,270,305z"/>
	<path fill="#FFFFFF" d="M295,300c-0.5,0-0.9,0.1-1.4,0.2l2.4-0.1C295.7,300,295.4,300,295,300z"/>
	<path fill="#FFFFFF" d="M290,305c0,2.8,2.2,5,5,5s5-2.2,5-5c0-2.4-1.7-4.4-3.9-4.9l-2.4,0.1C291.5,300.8,290,302.7,290,305z"/>
	<circle fill="#FFFFFF" cx="315" cy="305" r="5"/>
	<circle fill="#FFFFFF" cx="335" cy="305" r="5"/>
	<circle fill="#FFFFFF" cx="355" cy="305" r="5"/>
	<circle fill="#FFFFFF" cx="375" cy="305" r="5"/>
	<circle fill="#FFFFFF" cx="395" cy="305" r="5"/>
	<circle fill="#FFFFFF" cx="415" cy="305" r="5"/>
	<path fill="#FFFFFF" d="M10,325c0-2.8-2.2-5-5-5c-0.9,0-1.8,0.3-2.5,0.7l0,8.6c0.8,0.5,1.6,0.7,2.6,0.7C7.8,330,10,327.8,10,325z"
		/>
	<circle fill="#FFFFFF" cx="25" cy="325" r="5"/>
	<circle fill="#FFFFFF" cx="45" cy="325" r="5"/>
	<circle fill="#FFFFFF" cx="65" cy="325" r="5"/>
	<circle fill="#FFFFFF" cx="85" cy="325" r="5"/>
	<circle fill="#FFFFFF" cx="105" cy="325" r="5"/>
	<circle fill="#FFFFFF" cx="125" cy="325" r="5"/>
	<circle fill="#FFFFFF" cx="145" cy="325" r="5"/>
	<circle fill="#FFFFFF" cx="165" cy="325" r="5"/>
	<circle fill="#FFFFFF" cx="185" cy="325" r="5"/>
	<circle fill="#FFFFFF" cx="205" cy="325" r="5"/>
	<circle fill="#FFFFFF" cx="225" cy="325" r="5"/>
	<circle fill="#FFFFFF" cx="245" cy="325" r="5"/>
	<circle fill="#FFFFFF" cx="265" cy="325" r="5"/>
	<circle fill="#FFFFFF" cx="285" cy="325" r="5"/>
	<circle fill="#FFFFFF" cx="305" cy="325" r="5"/>
	<circle fill="#FFFFFF" cx="325" cy="325" r="5"/>
	<circle fill="#FFFFFF" cx="345" cy="325" r="5"/>
	<circle fill="#FFFFFF" cx="365" cy="325" r="5"/>
	<circle fill="#FFFFFF" cx="385" cy="325" r="5"/>
	<circle fill="#FFFFFF" cx="405" cy="325" r="5"/>
	<circle fill="#FFFFFF" cx="425" cy="325" r="5"/>
	<circle fill="#FFFFFF" cx="15" cy="345" r="5"/>
	<circle fill="#FFFFFF" cx="35" cy="345" r="5"/>
	<circle fill="#FFFFFF" cx="55" cy="345" r="5"/>
	<circle fill="#FFFFFF" cx="75" cy="345" r="5"/>
	<circle fill="#FFFFFF" cx="95" cy="345" r="5"/>
	<circle fill="#FFFFFF" cx="115" cy="345" r="5"/>
	<circle fill="#FFFFFF" cx="135" cy="345" r="5"/>
	<circle fill="#FFFFFF" cx="155" cy="345" r="5"/>
	<circle fill="#FFFFFF" cx="175" cy="345" r="5"/>
	<circle fill="#FFFFFF" cx="195" cy="345" r="5"/>
	<circle fill="#FFFFFF" cx="215" cy="345" r="5"/>
	<circle fill="#FFFFFF" cx="235" cy="345" r="5"/>
	<circle fill="#FFFFFF" cx="255" cy="345" r="5"/>
	<circle fill="#FFFFFF" cx="275" cy="345" r="5"/>
	<circle fill="#FFFFFF" cx="295" cy="345" r="5"/>
	<circle fill="#FFFFFF" cx="315" cy="345" r="5"/>
	<circle fill="#FFFFFF" cx="335" cy="345" r="5"/>
	<circle fill="#FFFFFF" cx="355" cy="345" r="5"/>
	<circle fill="#FFFFFF" cx="375" cy="345" r="5"/>
	<circle fill="#FFFFFF" cx="395" cy="345" r="5"/>
	<circle fill="#FFFFFF" cx="415" cy="345" r="5"/>
	<path fill="#FFFFFF" d="M10,365c0-2.8-2.2-5-5-5c-1,0-1.9,0.3-2.6,0.8l0,8.5C3.1,369.7,4,370,5,370C7.8,370,10,367.8,10,365z"/>
	<circle fill="#FFFFFF" cx="25" cy="365" r="5"/>
	<circle fill="#FFFFFF" cx="45" cy="365" r="5"/>
	<circle fill="#FFFFFF" cx="65" cy="365" r="5"/>
	<circle fill="#FFFFFF" cx="85" cy="365" r="5"/>
	<circle fill="#FFFFFF" cx="105" cy="365" r="5"/>
	<circle fill="#FFFFFF" cx="125" cy="365" r="5"/>
	<circle fill="#FFFFFF" cx="145" cy="365" r="5"/>
	<circle fill="#FFFFFF" cx="165" cy="365" r="5"/>
	<circle fill="#FFFFFF" cx="185" cy="365" r="5"/>
	<circle fill="#FFFFFF" cx="205" cy="365" r="5"/>
	<circle fill="#FFFFFF" cx="225" cy="365" r="5"/>
	<circle fill="#FFFFFF" cx="245" cy="365" r="5"/>
	<circle fill="#FFFFFF" cx="265" cy="365" r="5"/>
	<circle fill="#FFFFFF" cx="285" cy="365" r="5"/>
	<circle fill="#FFFFFF" cx="305" cy="365" r="5"/>
	<circle fill="#FFFFFF" cx="325" cy="365" r="5"/>
	<circle fill="#FFFFFF" cx="345" cy="365" r="5"/>
	<circle fill="#FFFFFF" cx="365" cy="365" r="5"/>
	<circle fill="#FFFFFF" cx="385" cy="365" r="5"/>
	<circle fill="#FFFFFF" cx="405" cy="365" r="5"/>
	<circle fill="#FFFFFF" cx="425" cy="365" r="5"/>
	<circle fill="#FFFFFF" cx="15" cy="385" r="5"/>
	<circle fill="#FFFFFF" cx="35" cy="385" r="5"/>
	<circle fill="#FFFFFF" cx="55" cy="385" r="5"/>
	<circle fill="#FFFFFF" cx="75" cy="385" r="5"/>
	<circle fill="#FFFFFF" cx="95" cy="385" r="5"/>
	<circle fill="#FFFFFF" cx="115" cy="385" r="5"/>
	<circle fill="#FFFFFF" cx="135" cy="385" r="5"/>
	<circle fill="#FFFFFF" cx="155" cy="385" r="5"/>
	<circle fill="#FFFFFF" cx="175" cy="385" r="5"/>
	<circle fill="#FFFFFF" cx="195" cy="385" r="5"/>
	<circle fill="#FFFFFF" cx="215" cy="385" r="5"/>
	<circle fill="#FFFFFF" cx="235" cy="385" r="5"/>
	<circle fill="#FFFFFF" cx="255" cy="385" r="5"/>
	<circle fill="#FFFFFF" cx="275" cy="385" r="5"/>
	<circle fill="#FFFFFF" cx="295" cy="385" r="5"/>
	<circle fill="#FFFFFF" cx="315" cy="385" r="5"/>
	<circle fill="#FFFFFF" cx="335" cy="385" r="5"/>
	<circle fill="#FFFFFF" cx="355" cy="385" r="5"/>
	<circle fill="#FFFFFF" cx="375" cy="385" r="5"/>
	<circle fill="#FFFFFF" cx="395" cy="385" r="5"/>
	<circle fill="#FFFFFF" cx="415" cy="385" r="5"/>
	<line fill="#FFFFFF" x1="2.3" y1="409.2" x2="2.3" y2="400.8"/>
	<path fill="#FFFFFF" d="M10,405c0-2.8-2.2-5-5-5c-1,0-1.9,0.3-2.7,0.8l0,8.4C3.1,409.7,4,410,5,410C7.8,410,10,407.8,10,405z"/>
	<circle fill="#FFFFFF" cx="25" cy="405" r="5"/>
	<circle fill="#FFFFFF" cx="45" cy="405" r="5"/>
	<circle fill="#FFFFFF" cx="65" cy="405" r="5"/>
	<circle fill="#FFFFFF" cx="85" cy="405" r="5"/>
	<circle fill="#FFFFFF" cx="105" cy="405" r="5"/>
	<circle fill="#FFFFFF" cx="125" cy="405" r="5"/>
	<path fill="#FFFFFF" d="M145,410c0.1,0,0.2,0,0.2,0l-0.4,0C144.9,410,145,410,145,410z"/>
	<path fill="#FFFFFF" d="M150,405c0-2.8-2.2-5-5-5s-5,2.2-5,5c0,2.7,2.2,4.9,4.9,5l0.4,0C147.9,409.8,150,407.7,150,405z"/>
	<line fill="#FFFFFF" x1="167.7" y1="409.2" x2="162.6" y2="409.4"/>
	<path fill="#FFFFFF" d="M170,405c0-2.8-2.2-5-5-5s-5,2.2-5,5c0,1.9,1.1,3.5,2.6,4.4l5.1-0.2C169.1,408.3,170,406.8,170,405z"/>
	<line fill="#FFFFFF" x1="188.6" y1="408.5" x2="181.7" y2="408.7"/>
	<path fill="#FFFFFF" d="M185,400c-2.8,0-5,2.2-5,5c0,1.5,0.6,2.8,1.7,3.7l6.9-0.2c0.9-0.9,1.4-2.1,1.4-3.5
		C190,402.2,187.8,400,185,400z"/>
	<path fill="#FFFFFF" d="M205,400c-2.8,0-5,2.2-5,5c0,1.1,0.4,2.2,1,3l8.1-0.3c0.5-0.8,0.8-1.7,0.8-2.7C210,402.2,207.8,400,205,400
		z"/>
	<path fill="#FFFFFF" d="M225,400c-2.8,0-5,2.2-5,5c0,0.8,0.2,1.6,0.6,2.3l9-0.3c0.3-0.6,0.4-1.3,0.4-2C230,402.2,227.8,400,225,400
		z"/>
	<path fill="#FFFFFF" d="M245,400c-2.8,0-5,2.2-5,5c0,0.6,0.1,1.1,0.3,1.6l9.5-0.3c0.1-0.4,0.2-0.8,0.2-1.3
		C250,402.2,247.8,400,245,400z"/>
	<path fill="#FFFFFF" d="M265,400c-2.8,0-5,2.2-5,5c0,0.3,0,0.6,0.1,0.9l9.8-0.3c0-0.2,0.1-0.4,0.1-0.6C270,402.2,267.8,400,265,400
		z"/>
	<path fill="#FFFFFF" d="M285,400c-2.8,0-5,2.2-5,5c0,0.1,0,0.2,0,0.2l10-0.4C289.9,402.2,287.7,400,285,400z"/>
	<path fill="#FFFFFF" d="M305,400c-2.6,0-4.7,2-5,4.5l9.9-0.3C309.5,401.8,307.5,400,305,400z"/>
	<path fill="#FFFFFF" d="M325,400c-2.4,0-4.3,1.6-4.8,3.8l9.6-0.3C329.1,401.5,327.2,400,325,400z"/>
	<path fill="#FFFFFF" d="M345,400c-2.1,0-3.9,1.3-4.6,3.1l9.1-0.3C348.7,401.1,347,400,345,400z"/>
	<path fill="#FFFFFF" d="M365,400c-1.8,0-3.4,1-4.3,2.4l8.3-0.3C368.2,400.8,366.7,400,365,400z"/>
	<path fill="#FFFFFF" d="M381.3,401.7l7.2-0.3c-0.9-0.9-2.1-1.4-3.5-1.4C383.5,400,382.2,400.7,381.3,401.7z"/>
	<path fill="#FFFFFF" d="M402.1,401l5.5-0.2c-0.8-0.5-1.7-0.8-2.6-0.8C403.9,400,402.9,400.4,402.1,401z"/>
	<path fill="#FFFFFF" d="M423.7,400.2l2.3-0.1c-0.3-0.1-0.7-0.1-1-0.1C424.5,400,424.1,400.1,423.7,400.2z"/>
	<circle fill="#FFFFFF" cx="435" cy="305" r="5"/>
	<circle fill="#FFFFFF" cx="455" cy="305" r="5"/>
	<circle fill="#FFFFFF" cx="475" cy="305" r="5"/>
	<circle fill="#FFFFFF" cx="495" cy="305" r="5"/>
	<circle fill="#FFFFFF" cx="515" cy="305" r="5"/>
	<circle fill="#FFFFFF" cx="535" cy="305" r="5"/>
	<circle fill="#FFFFFF" cx="445" cy="325" r="5"/>
	<circle fill="#FFFFFF" cx="465" cy="325" r="5"/>
	<circle fill="#FFFFFF" cx="485" cy="325" r="5"/>
	<circle fill="#FFFFFF" cx="505" cy="325" r="5"/>
	<circle fill="#FFFFFF" cx="525" cy="325" r="5"/>
	<path fill="#FFFFFF" d="M540,325c0,1.5,0.7,2.9,1.8,3.8l0.1-7.7C540.8,322,540,323.4,540,325z"/>
	<circle fill="#FFFFFF" cx="435" cy="345" r="5"/>
	<circle fill="#FFFFFF" cx="455" cy="345" r="5"/>
	<circle fill="#FFFFFF" cx="475" cy="345" r="5"/>
	<circle fill="#FFFFFF" cx="495" cy="345" r="5"/>
	<circle fill="#FFFFFF" cx="515" cy="345" r="5"/>
	<circle fill="#FFFFFF" cx="535" cy="345" r="5"/>
	<circle fill="#FFFFFF" cx="445" cy="365" r="5"/>
	<circle fill="#FFFFFF" cx="465" cy="365" r="5"/>
	<circle fill="#FFFFFF" cx="485" cy="365" r="5"/>
	<circle fill="#FFFFFF" cx="505" cy="365" r="5"/>
	<circle fill="#FFFFFF" cx="525" cy="365" r="5"/>
	<path fill="#FFFFFF" d="M540,365c0,1.3,0.5,2.5,1.4,3.4l0.1-6.9C540.6,362.4,540,363.6,540,365z"/>
	<circle fill="#FFFFFF" cx="435" cy="385" r="5"/>
	<circle fill="#FFFFFF" cx="455" cy="385" r="5"/>
	<circle fill="#FFFFFF" cx="475" cy="385" r="5"/>
	<circle fill="#FFFFFF" cx="495" cy="385" r="5"/>
	<circle fill="#FFFFFF" cx="515" cy="385" r="5"/>
	<circle fill="#FFFFFF" cx="535" cy="385" r="5"/>
</g>
<g>
	<circle fill="#97C0D7" cx="270" cy="301.1" r="25"/>
	<path fill="#F7DF48" d="M270,276.1c13.8,0,25,11.2,25,25s-11.2,25-25,25s-25-11.2-25-25S256.2,276.1,270,276.1 M270,274.1
		c-14.9,0-27,12.1-27,27s12.1,27,27,27c14.9,0,27-12.1,27-27S284.9,274.1,270,274.1L270,274.1z"/>
</g>
<g>
	<path fill="#FFFFFF" d="M265.8,302.7c-0.8,2.5-2.2,3.7-4,3.7c-1.2,0-1.9-0.6-2-1.9c-0.8,1.3-1.8,1.9-3,1.9c-0.6,0-1.1-0.2-1.5-0.6
		c-0.4-0.4-0.6-1-0.6-1.8c0-0.4,0.1-0.8,0.2-1.3l1.4-6.4h2.9l-1.4,6.8c0,0.2-0.1,0.4-0.1,0.6c0,0.5,0.2,0.8,0.6,0.8
		c0.7,0,1.2-0.6,1.6-1.8l1.4-6.4h2.9l-1.4,6.8c-0.1,0.2-0.1,0.5-0.1,0.7c0,0.5,0.3,0.7,0.8,0.7c0.7,0,1.3-0.6,1.6-1.8H265.8z"/>
	<path fill="#FFFFFF" d="M277,302.7c-0.8,2.5-2.1,3.7-3.7,3.7c-0.8,0-1.3-0.2-1.8-0.6s-0.6-0.9-0.6-1.4s0.1-1.5,0.4-2.8l0.9-4
		c-0.7,0-1.2,0.3-1.5,0.8s-0.6,1.4-0.9,2.5s-0.4,2-0.6,2.6s-0.3,1.1-0.6,1.5c-0.5,0.9-1.2,1.3-2.2,1.3c-0.7,0-1.3-0.2-1.6-0.7
		s-0.6-1-0.6-1.7s0.2-1.1,0.7-1.4c0.1-0.1,0.4-0.1,0.6-0.1s0.5,0.1,0.7,0.3s0.3,0.4,0.3,0.8s-0.1,0.6-0.2,0.7s-0.3,0.2-0.6,0.2
		c0,0.1,0.1,0.3,0.2,0.4s0.3,0.2,0.6,0.2s0.6-0.1,0.8-0.3c0.4-0.4,0.6-1.1,0.9-2.1l0.3-1.5c0.6-2.8,1.4-4.4,2.6-4.8
		c0.4-0.1,0.8-0.2,1.2-0.2h2.9l-1.4,6.5c-0.1,0.4-0.1,0.7-0.1,0.8c0,0.6,0.3,0.8,0.8,0.8c0.4,0,0.7-0.2,1-0.5
		c0.2-0.3,0.5-0.7,0.7-1.3H277z"/>
	<path fill="#FFFFFF" d="M278.9,303.6c0,0.6,0.2,0.9,0.6,0.9c0.7,0,1.2-0.6,1.6-1.8l1.4-6.4h2.9l-1.4,6.8c-0.1,0.2-0.1,0.5-0.1,0.7
		c0,0.5,0.3,0.7,0.8,0.7c0.1,0,0.4,0,0.7-0.1c0,0.7-0.3,1.2-0.7,1.6s-0.9,0.5-1.5,0.5s-1-0.2-1.3-0.5s-0.5-0.8-0.6-1.4
		c-0.8,1.3-1.8,1.9-3,1.9c-0.6,0-1.1-0.2-1.5-0.6c-0.4-0.4-0.6-1-0.6-1.8c0-0.4,0.1-0.8,0.2-1.3l1.4-6.4h2.9l-1.4,6.8
		C278.9,303.3,278.9,303.4,278.9,303.6z"/>
</g>
</svg>
