<?xml version="1.0" encoding="utf-8"?>
<!-- Generator: Adobe Illustrator 17.1.0, SVG Export Plug-In . SVG Version: 6.00 Build 0)  -->
<!DOCTYPE svg PUBLIC "-//W3C//DTD SVG 1.1//EN" "http://www.w3.org/Graphics/SVG/1.1/DTD/svg11.dtd">
<svg version="1.1" id="Слой_1" xmlns="http://www.w3.org/2000/svg" xmlns:xlink="http://www.w3.org/1999/xlink" x="0px" y="0px"
	 viewBox="0 0 543 523.5" enable-background="new 0 0 543 523.5" xml:space="preserve">
<path fill="#FFFFFF" d="M540.7,513.6c0,3.9-3.1,7-7,7l-87-2l-128.9,2.9l-171.9-1.1L7.7,520.6c-3.9,0-7-3.1-7-7l1.7-182.2L1,268.5
	v-58L-0.3,94.3l1-83.8c0-3.9,3.1-7,7-7l89-0.5l114,0.4l151-0.9l125.5,1l46.5,0c3.9,0,7,3.1,7,7l1,114.3l1.2,65.8l-0.8,19.8v58
	l-0.1,21.8l-0.1,16l-0.8,66.7L540.7,513.6z"/>
<g>
	<line fill="#FFFFFF" x1="1.8" y1="348.7" x2="541" y2="329.5"/>
	<linearGradient id="SVGID_1_" gradientUnits="userSpaceOnUse" x1="1.7588" y1="339.0977" x2="541.0352" y2="339.0977">
		<stop  offset="0" style="stop-color:#BB5849"/>
		<stop  offset="1" style="stop-color:#F7DF48"/>
	</linearGradient>
	<polygon fill="url(#SVGID_1_)" points="1.8,349.7 1.8,347.7 541,328.5 541,330.5 	"/>
</g>
<g>
	<g>
		<path fill="#B47B94" d="M372,493.7c0,0-40.7-9.6-45.4-1.3c-4.6,8.3,12.5,9.8,12.5,9.8l29.9-1L372,493.7z"/>
		<path fill="#FFFFFF" d="M339.1,503.1L339.1,503.1c-1.2-0.1-11.2-1.1-13.7-5.8c-0.9-1.6-0.7-3.5,0.4-5.4c1.5-2.6,5.6-3.9,12.8-3.9
			c13.5,0,33.5,4.7,33.7,4.7l1.1,0.3l-3.7,9.1L339.1,503.1z M338.5,490c-7.8,0-10.3,1.5-11,2.8c-0.8,1.4-0.9,2.5-0.3,3.5
			c1.7,3.2,9.1,4.5,12,4.8l29.2-1l2.3-5.8C366.2,493.4,350,490,338.5,490z"/>
	</g>
	<g>
		<path fill="#96C4DD" d="M152.6,492.9c0,0-29-9.8-36.3-6.3c-7.3,3.5-9.9,13.2-9.9,13.2l12.1,7.3l13.7-2.6L152.6,492.9z"/>
		<path fill="#FFFFFF" d="M118.3,508.1l-13-7.9l0.2-0.7c0.1-0.4,2.9-10.2,10.5-13.8c1.2-0.6,2.8-0.8,5-0.8c10.8,0,31.1,6.8,32,7.1
			l2.1,0.7l-22.5,12.8L118.3,508.1z M107.6,499.3l11.1,6.7l13.2-2.5l18.3-10.4c-5.6-1.8-20.7-6.3-29.2-6.3c-1.9,0-3.3,0.2-4.2,0.6
			C111.1,490.2,108.4,497.1,107.6,499.3z"/>
	</g>
	<g>
		<path fill="#F1E081" d="M209.5,494.2c0,0-28.4-11.3-42-10.9c-13.6,0.3-28.1,18.9-28.1,18.9L209.5,494.2z"/>
		<path fill="#FFFFFF" d="M137.2,503.4l1.5-1.9c0.6-0.8,14.9-18.9,28.8-19.3c13.6-0.3,41.3,10.6,42.4,11l3.7,1.5L137.2,503.4z
			 M168.1,484.2c-0.2,0-0.4,0-0.6,0c-10.4,0.3-21.6,11.9-25.7,16.6l63.5-7.2C197.2,490.7,178.5,484.2,168.1,484.2z"/>
	</g>
	<g>
		<path fill="#C5D455" d="M84.3,511.7c0,0-30-12-41.1-3.5c-11,8.5-8.8,10.7-8.8,10.7h45.5L84.3,511.7z"/>
		<path fill="#FFFFFF" d="M80.5,519.8H34l-0.3-0.3c-0.1-0.1-0.5-0.6-0.5-1.5c0.2-2.4,3.3-6,9.4-10.7c2.8-2.2,6.9-3.2,12.3-3.2
			c13.1,0,29.1,6.4,29.8,6.6l1.1,0.4L80.5,519.8z M35.3,517.8h44l3.5-5.7c-3.9-1.4-17.2-6.1-27.9-6.1c-4.9,0-8.6,1-11,2.8
			C36.9,514.3,35.6,516.9,35.3,517.8z"/>
	</g>
	<g>
		<path fill="#F1E081" d="M88.3,497.8c0,0-27.4,0.7-28.3,5.1c-0.9,4.5,15.5,13,15.5,13L88.3,497.8z"/>
		<path fill="#FFFFFF" d="M75.8,517.1l-0.8-0.4c-2.8-1.5-17-9.1-16-14c0.3-1.6,2.4-3.7,15.3-5c6.9-0.7,13.8-0.9,13.9-0.9l2,0
			L75.8,517.1z M86.3,498.8c-13.5,0.5-24.9,2.4-25.3,4.2c-0.4,2.2,6.9,7.6,14.2,11.5L86.3,498.8z"/>
	</g>
	<g>
		<path fill="#96C4DD" d="M98,501.7c0,0-19-1.6-20.3,4.9S72,518.8,72,518.8h29.1L98,501.7z"/>
		<path fill="#FFFFFF" d="M102.3,519.8H69.9l1.2-1.6c0-0.1,4.3-5.6,5.6-11.9c1-4.9,9.4-5.9,16.4-5.9c2.9,0,4.9,0.2,5,0.2l0.8,0.1
			L102.3,519.8z M73.9,517.8h26l-2.7-15.2c-0.8-0.1-2.3-0.1-4.1-0.1c-8.6,0-13.8,1.6-14.4,4.3C77.7,511.4,75.3,515.6,73.9,517.8z"/>
	</g>
	<g>
		<path fill="#B47B94" d="M130.3,501.7c0,0-44.2-11.9-47.2-7c-3.1,4.8,11.5,17.7,11.5,17.7l18.8,1.8L130.3,501.7z"/>
		<path fill="#FFFFFF" d="M113.5,515.2l-19.5-1.9l-0.2-0.2c-2.5-2.2-15-13.7-11.7-19c0.7-1.1,2.4-1.6,5.5-1.6
			c12.1,0,41.6,7.9,42.8,8.2l2,0.5L113.5,515.2z M94.9,511.4l18.1,1.8l15-11c-7-1.8-30.2-7.6-40.3-7.6c-3.4,0-3.8,0.7-3.8,0.7
			C82.1,498,89.2,506.3,94.9,511.4z"/>
	</g>
	<g>
		<path fill="#F1E081" d="M139.4,505.3c0,0-11.5-13.7-17.8-9c-6.3,4.7-11.9,14.6-11.9,14.6L139.4,505.3z"/>
		<path fill="#FFFFFF" d="M107.8,512.2l1.1-1.9c0.2-0.4,5.8-10.1,12.2-14.9c1-0.8,2.3-1.2,3.6-1.2c6.8,0,15.2,9.9,15.5,10.3l1.1,1.3
			L107.8,512.2z M124.7,496.3c-0.9,0-1.7,0.3-2.4,0.8c-4.4,3.3-8.6,9.3-10.5,12.4l25.8-4.9C135,502,129.2,496.3,124.7,496.3z"/>
	</g>
	<g>
		<path fill="#C25546" d="M132.9,505.9c0,0-8.3-4.2-12.9-4.3s-11.9,9-17.2,7.8c-5.3-1.2-7.3,6.4-7.3,6.4v3h35.4L132.9,505.9z"/>
		<path fill="#FFFFFF" d="M131.8,519.8H94.5l0-4.2c0.1-0.3,2-7.3,7.1-7.3c0.4,0,0.9,0.1,1.3,0.2c0.3,0.1,0.5,0.1,0.8,0.1
			c2.4,0,5.3-2,8.2-4c2.9-2,5.6-3.9,8-3.9c4.9,0,13.1,4.2,13.4,4.4l0.6,0.3L131.8,519.8z M96.5,517.8h33.6l1.7-11.3
			c-2-1-8.2-3.8-11.8-3.8c-1.8,0-4.4,1.8-6.9,3.5c-3.1,2.2-6.3,4.4-9.3,4.4c0,0,0,0,0,0c-0.4,0-0.8,0-1.2-0.1
			c-0.3-0.1-0.6-0.1-0.9-0.1c-3.3,0-4.9,4.9-5.2,5.7V517.8z"/>
	</g>
	<g>
		<path fill="#96C4DD" d="M173.3,497.8c0,0-28.8-4.2-31.8,8.8c-3,12.9,18.7,5.1,18.7,5.1L173.3,497.8z"/>
		<path fill="#FFFFFF" d="M148.3,515L148.3,515c-3.3,0-5.6-0.8-6.9-2.5c-1.2-1.5-1.5-3.6-0.9-6.2c1.9-8.4,13.5-10.2,22.8-10.2
			c5.6,0,9.9,0.6,10.1,0.6l1.9,0.3l-14.6,15.5l-0.2,0.1C160.3,512.7,153.8,515,148.3,515z M163.3,498.1c-8.6,0-19.2,1.5-20.9,8.6
			c-0.5,2-0.3,3.5,0.5,4.5c0.9,1.1,2.7,1.7,5.3,1.7c4.6,0,10.2-1.8,11.3-2.2l11.6-12.3C169.4,498.4,166.6,498.1,163.3,498.1z"/>
	</g>
	<g>
		<path fill="#C5D455" d="M160.2,510.5c0,0-15.7-15.3-28.6-9.9c-12.9,5.4-12.9,18.3-12.9,18.3h41.5V510.5z"/>
		<path fill="#FFFFFF" d="M161.2,519.8h-43.5v-1c0-0.1,0.2-13.6,13.5-19.2c1.9-0.8,4.1-1.2,6.3-1.2c11.6,0,22.9,10.9,23.4,11.4
			l0.3,0.3V519.8z M119.7,517.8h39.5v-6.9c-1.9-1.7-11.9-10.5-21.7-10.5c-2,0-3.8,0.4-5.5,1.1C121.7,505.7,120,514.8,119.7,517.8z"
			/>
	</g>
	<g>
		<path fill="#C25546" d="M206.9,501.1c0,0-27.6-9.7-35.6-6.9c-7.9,2.8-12.6,21-12.6,21L206.9,501.1z"/>
		<path fill="#FFFFFF" d="M157.3,516.7l0.4-1.7c0.2-0.8,4.9-18.8,13.2-21.7c1.1-0.4,2.4-0.6,4.2-0.6c10.7,0,31.2,7.2,32.1,7.5l2.9,1
			L157.3,516.7z M175.2,494.7c-1.5,0-2.7,0.2-3.5,0.4c-6,2.1-10.1,14.1-11.5,18.6l43.4-12.7C197.4,499,183.1,494.7,175.2,494.7z"/>
	</g>
	<g>
		<path fill="#F1E081" d="M180.4,508.1c0,0-15-5.9-20-3.9s-7,14.6-7,14.6h23.5L180.4,508.1z"/>
		<path fill="#FFFFFF" d="M177.7,519.8h-25.4l0.2-1.2c0.2-1.3,2.2-13.2,7.6-15.4c0.8-0.3,1.8-0.5,3.1-0.5c6.4,0,17.2,4.2,17.6,4.4
			l0.9,0.3L177.7,519.8z M154.6,517.8h21.6l2.9-9.1c-2.7-1-11-3.9-16-3.9c-1,0-1.8,0.1-2.4,0.3C157.5,506.5,155.4,513.9,154.6,517.8
			z"/>
	</g>
	<g>
		<path fill="#B47B94" d="M180.1,510.5c0,0,0.9-13.3,4.9-16.3c4-3,24.5,0,24.5,0L180.1,510.5z"/>
		<path fill="#FFFFFF" d="M179,512.2l0.1-1.8c0.1-1.4,1-13.8,5.2-17c1.4-1,4.2-1.5,8.7-1.5c7.2,0,16.4,1.3,16.5,1.4l2.9,0.4
			L179,512.2z M193.1,493.8c-5.2,0-7,0.7-7.5,1.1c-2.5,1.9-3.8,9.4-4.3,13.7l25.1-13.9C203.1,494.4,197.7,493.8,193.1,493.8z"/>
	</g>
	<g>
		<path fill="#96C4DD" d="M223.3,512.2c0,0-22.8-13.4-36.9-11.1s-18.1,17.7-18.1,17.7h55.9L223.3,512.2z"/>
		<path fill="#FFFFFF" d="M225.3,519.8h-58.4l0.3-1.2c0-0.2,4.3-16.1,18.9-18.5c1.1-0.2,2.3-0.3,3.6-0.3c14.2,0,33.2,11,34,11.5
			l0.4,0.2L225.3,519.8z M169.6,517.8H223l-0.7-5c-2.9-1.6-20-11-32.6-11c-1.2,0-2.3,0.1-3.3,0.2
			C175.5,503.9,170.9,514.2,169.6,517.8z"/>
	</g>
	<g>
		<path fill="#C5D455" d="M236.3,496.3c0,0-36-10.1-37.3-3.9c-1.2,6.2-5.2,17.3-3.2,20.1c2,2.8,26-3.5,26-3.5L236.3,496.3z"/>
		<path fill="#FFFFFF" d="M198.8,514.2C198.8,514.2,198.8,514.2,198.8,514.2c-2.1,0-3.3-0.4-3.8-1.2c-1.6-2.3-0.4-7.4,1.6-15
			c0.6-2.2,1.1-4.2,1.5-5.9c0.6-2.8,5.2-2.8,6.7-2.8c10.5,0,31,5.7,31.9,5.9l1.8,0.5l-16.1,14.1l-0.2,0.1
			C221.4,510.1,205.8,514.2,198.8,514.2z M196.6,511.9c0,0,0.4,0.3,2.2,0.3c6.3,0,20.5-3.6,22.5-4.1l12.9-11.3
			c-5.3-1.4-21.1-5.4-29.5-5.4c-3.3,0-4.6,0.6-4.7,1.2c-0.3,1.7-0.9,3.8-1.5,6C197.2,503.5,195.4,510.2,196.6,511.9L196.6,511.9z"/>
	</g>
	<g>
		<path fill="#B47B94" d="M266.5,491.4c0,0-39.9-9.7-43.3,14.2s31.5-1.4,31.5-1.4L266.5,491.4z"/>
		<path fill="#FFFFFF" d="M229.4,516.8C229.4,516.8,229.4,516.8,229.4,516.8c-2.4,0-4.3-0.7-5.6-2.2c-1.6-1.9-2.2-5-1.6-9.2
			c1.6-11.1,11-17,27.1-17c9.2,0,17,1.9,17.4,2l1.6,0.4L255.4,505C254.7,505.5,238.9,516.8,229.4,516.8z M249.4,490.4
			c-10.5,0-23.4,2.6-25.2,15.3c-0.5,3.6-0.1,6.2,1.1,7.6c0.9,1,2.2,1.5,4.1,1.5c0,0,0,0,0,0c8.5,0,23.4-10.5,24.7-11.4l10.5-11.5
			C261.8,491.4,255.9,490.4,249.4,490.4z"/>
	</g>
	<g>
		<path fill="#C25546" d="M248.1,506.8c0,0-11-9.3-23-5.3c-11.9,4-14.1,11.3-14.1,11.3l4.9,6h27.2L248.1,506.8z"/>
		<path fill="#FFFFFF" d="M244,519.8h-28.4l-5.6-6.7l0.1-0.5c0.1-0.3,2.4-7.8,14.7-12c2.1-0.7,4.3-1.1,6.6-1.1
			c9.5,0,17,6.2,17.4,6.5l0.6,0.5L244,519.8z M216.5,517.8h26.1l4.3-10.7c-1.9-1.4-8.1-5.6-15.5-5.6c-2,0-4,0.3-5.9,1
			c-9.5,3.2-12.5,8.6-13.2,10.2L216.5,517.8z"/>
	</g>
	<g>
		<path fill="#C5D455" d="M298.5,491.4c0,0-26.9-29.2-43.7,12.8L298.5,491.4z"/>
		<path fill="#FFFFFF" d="M253.1,505.7l0.8-1.9c6.2-15.5,14.5-23.3,24.6-23.3c11.2,0,20.4,9.8,20.8,10.2l1.1,1.2L253.1,505.7z
			 M278.5,482.5c-8.8,0-16.2,6.8-22,20.1l40.1-11.8C293.8,488.4,286.6,482.5,278.5,482.5z"/>
	</g>
	<g>
		<path fill="#F1E081" d="M284.2,498.7c0,0-34.7-4.2-39.5,6.4s-4.2,13.7-4.2,13.7h52.1L284.2,498.7z"/>
		<path fill="#FFFFFF" d="M294.1,519.8h-54.4l-0.2-0.8c-0.1-0.4-0.6-3.7,4.3-14.4c2.4-5.2,11-7.8,25.6-7.8c8,0,14.9,0.8,14.9,0.8
			l0.6,0.1L294.1,519.8z M241.5,517.8h49.6l-7.6-18.2c-1.8-0.2-7.6-0.8-14.1-0.8c-13.4,0-21.9,2.4-23.8,6.7
			C242.3,512.7,241.6,516.4,241.5,517.8z"/>
	</g>
	<g>
		<path fill="#96C4DD" d="M296.5,492.4c0,0-27.6-6.7-29.8,6.1s21.1,20.4,21.1,20.4L296.5,492.4z"/>
		<path fill="#FFFFFF" d="M288.4,520.1l-0.9-0.3c-1-0.3-24.1-7.9-21.8-21.5c0.7-4,4-8.7,16.2-8.7c7.4,0,14.5,1.7,14.8,1.8l1.1,0.3
			L288.4,520.1z M281.9,491.6c-8.6,0-13.4,2.4-14.2,7.1c-1.8,10.4,15.3,17.4,19.5,18.9l8-24.5C293,492.6,287.4,491.6,281.9,491.6z"
			/>
	</g>
	<g>
		<path fill="#C25546" d="M345.3,496.3c0,0-14.6-9.2-39.1-9.5c-24.5-0.2-25.8,16.6-25.8,18.8s49.5,0,49.5,0L345.3,496.3z"/>
		<path fill="#FFFFFF" d="M293.2,507.6C293.2,507.6,293.2,507.6,293.2,507.6c-13.8,0-13.8-0.8-13.8-2c0-0.8,0.3-19.8,26.3-19.8
			l0.5,0c24.5,0.2,39,9.2,39.6,9.6l1.4,0.9l-17,10.3l-0.3,0C329.7,506.6,307.7,507.6,293.2,507.6z M281.4,505
			c0.9,0.2,3.5,0.5,11.8,0.5c13.6,0,33.8-0.9,36.3-1l13.8-8.3c-4.2-2.2-17.6-8.3-37.1-8.5l-0.4,0c-9.8,0-16.8,2.7-20.9,8.2
			C282,499.7,281.5,503.6,281.4,505z"/>
	</g>
	<g>
		<path fill="#B47B94" d="M329.8,509.3c0,0-59.2-30.9-53.4,9.5H317L329.8,509.3z"/>
		<path fill="#FFFFFF" d="M317.4,519.8h-41.8l-0.1-0.9c-1.1-7.5,0-13.2,3.2-16.9c2.9-3.3,7.5-5,13.7-5c15.9,0,37.1,11,37.9,11.4
			l1.4,0.7L317.4,519.8z M277.3,517.8h39.4l11.2-8.3c-5.1-2.5-22.5-10.5-35.6-10.5c-5.6,0-9.7,1.5-12.2,4.4
			C277.5,506.5,276.5,511.3,277.3,517.8z"/>
	</g>
	<g>
		<path fill="#C5D455" d="M336.5,501.1c0,0-23.9-8.8-31.3-8.8c-8.6,0,13.3,26.5,6,26.5c-7.3,0,28,0,28,0L336.5,501.1z"/>
		<path fill="#FFFFFF" d="M340.3,519.8h-30.2v-2h1c0.2,0,0.4,0,0.4-0.1c0.7-1.2-2.3-7-4.4-10.9c-3.8-7.3-6.1-11.9-4.7-14.2
			c0.4-0.6,1.1-1.3,2.6-1.3c7.5,0,30.7,8.5,31.7,8.8l0.6,0.2L340.3,519.8z M313.6,517.8h24.3l-2.4-16c-3.6-1.3-23.9-8.5-30.4-8.5
			c-0.7,0-0.9,0.2-0.9,0.3c-0.9,1.6,2.3,7.8,4.7,12.3C312,511.7,313.9,515.6,313.6,517.8z"/>
	</g>
	<g>
		<path fill="#96C4DD" d="M372,499.6c0,0-31.7-6.4-37.9-2.8c-6.2,3.5-11.5,5.5-10.8,13.4c0.6,7.2,17.6,5.4,17.6,5.4l18.7-2
			L372,499.6z"/>
		<path fill="#FFFFFF" d="M336.5,516.8C336.5,516.8,336.5,516.8,336.5,516.8c-8.9,0-13.8-2.3-14.2-6.5c-0.7-7.7,4-10.2,9.3-13.2
			c0.6-0.4,1.3-0.7,2-1.1c1.4-0.8,3.9-1.2,7.6-1.2c11.4,0,30.2,3.8,31,3.9l1.7,0.3L360,514.5l-19,2.1
			C340.9,516.6,339.1,516.8,336.5,516.8z M341.2,496.7c-4.1,0-5.8,0.5-6.6,0.9c-0.7,0.4-1.4,0.8-2,1.1c-5.1,2.8-8.9,4.9-8.3,11.3
			c0.4,4.3,8.7,4.7,12.2,4.7c0,0,0,0,0,0c2.4,0,4.2-0.2,4.2-0.2l18.3-2l11-12.3C365.1,499.3,350.4,496.7,341.2,496.7z"/>
	</g>
	<g>
		<path fill="#C25546" d="M401.8,506.6c0,0-13.6-14.9-29.8-18c-9.6-1.8-9.3,20-15.9,24.1c-6.6,4.1,21.8,1.8,21.8,1.8L401.8,506.6z"
			/>
		<path fill="#FFFFFF" d="M363.4,516.1C363.4,516.1,363.4,516.1,363.4,516.1c-7.3,0-8.9-0.7-9.2-2c-0.3-1.2,1-2,1.4-2.3
			c2.5-1.5,4-6.3,5.5-10.9c2.1-6.6,4.3-13.4,9.8-13.4c0.4,0,0.8,0,1.3,0.1c16.4,3.1,29.8,17.7,30.4,18.3l1,1.1l-25.6,8.4
			C377.9,515.4,369.9,516.1,363.4,516.1z M356.5,513.6c0.8,0.2,2.6,0.5,6.9,0.5c6,0,13.3-0.6,14.3-0.6l22.3-7.3
			c-3.5-3.5-15-14.1-28.2-16.5c-0.3-0.1-0.6-0.1-0.9-0.1c-4,0-6,6.1-7.9,12.1c-1.7,5.2-3.3,10.1-6.4,12
			C356.6,513.5,356.6,513.6,356.5,513.6z"/>
	</g>
	<g>
		<path fill="#F1E081" d="M367.4,512.5c0,0-5.6-8.9-11.3-8.2c-5.6,0.7-20.5-0.4-21.5,4.1s0,10.5,0,10.5H369L367.4,512.5z"/>
		<path fill="#FFFFFF" d="M370.3,519.8h-36.6l-0.1-0.8c0-0.3-1-6.2,0-10.9c0.9-4.1,9.3-4.4,16.8-4.6c2.2-0.1,4.2-0.1,5.6-0.3
			c6.2-0.7,12,8.3,12.2,8.7l0.1,0.3L370.3,519.8z M335.4,517.8h32.3l-1.3-5c-0.7-1-5.3-7.7-9.7-7.7c-0.2,0-0.3,0-0.5,0
			c-1.5,0.2-3.5,0.2-5.8,0.3c-5.4,0.1-14.3,0.4-14.9,3C334.8,511.9,335.2,516.1,335.4,517.8z"/>
	</g>
	<g>
		<path fill="#B47B94" d="M401.8,512.2c0,0-14.2-6.3-17.6-6.7c-3.3-0.3-21.9-0.6-23.8,6.7c-2,7.3,0,6.6,0,6.6h41.4V512.2z"/>
		<path fill="#FFFFFF" d="M360.3,519.8c-0.5,0-0.9-0.2-1.2-0.6c-0.5-0.7-1-2.2,0.4-7.2c1.9-6.8,15.5-7.5,21.2-7.5
			c1.7,0,3,0.1,3.7,0.1c3.4,0.3,16.4,6.1,17.9,6.7l0.6,0.3v8.2h-42.3C360.4,519.8,360.4,519.8,360.3,519.8z M360.6,517.8h40.2v-4.9
			c-4.3-1.9-14.2-6.1-16.6-6.3c-0.6-0.1-1.8-0.1-3.5-0.1c-8.5,0-18.1,1.6-19.3,6.1C360.4,516.1,360.5,517.4,360.6,517.8z"/>
	</g>
	<g>
		<path fill="#96C4DD" d="M428.3,510.2c-5.5-3.4,0-7-14.2-8s-21.5,3.6-22.2,8c-0.7,4.3-9.6,8-9.6,8l-2.3,0.7h46L428.3,510.2z"/>
		<path fill="#FFFFFF" d="M426.7,519.8h-53.9l9.1-2.6c2.4-1,8.5-4.1,8.9-7.2c0.7-4.5,7-8.9,19.5-8.9c1.2,0,2.5,0,3.7,0.1
			c9.2,0.6,10.7,2.3,12,5.1c0.5,1.1,1,2,2.7,3.1l0.6,0.4L426.7,519.8z M385.3,517.8h39.9l1.9-7.2c-1.7-1.2-2.3-2.4-2.8-3.5
			c-0.9-1.9-1.6-3.4-10.4-3.9c-1.2-0.1-2.4-0.1-3.6-0.1c-10.8,0-17,3.6-17.5,7.2C392.4,513.6,388.2,516.3,385.3,517.8z"/>
	</g>
	<g>
		<path fill="#C25546" d="M452.8,518.8c0,0-10.6-16.9-20.5-15.9s-19.5,15.9-19.5,15.9H452.8z"/>
		<path fill="#FFFFFF" d="M454.6,519.8h-43.7l1-1.5c0.4-0.6,10-15.3,20.3-16.3c10.4-1,21,15.7,21.5,16.4L454.6,519.8z M414.6,517.8
			h36.3c-2.8-4-11-14.7-18.6-13.9C424.9,504.7,417.4,514.1,414.6,517.8z"/>
	</g>
	<g>
		<path fill="#F1E081" d="M512.9,518.8c0,0-38.6-21.2-63.4-10.6s0.7,10.6,0,10.6C448.8,518.8,512.9,518.8,512.9,518.8z"/>
		<path fill="#FFFFFF" d="M516.8,519.8h-67.3v-0.2l0,0.2c-3.4,0-11.2-0.5-11.8-3.8c-0.3-1.7,0.7-4.2,11.5-8.8c4.7-2,10.3-3,16.5-3
			c22.6,0,47.5,13.5,47.8,13.7L516.8,519.8z M449.5,517.8h59.2c-7.7-3.7-26.1-11.6-43.1-11.6c-6,0-11.3,1-15.7,2.9
			c-10.4,4.4-10.3,6.3-10.3,6.5C439.8,516.8,444.4,517.8,449.5,517.8L449.5,517.8z"/>
	</g>
</g>
<g>
	<g>
		<path fill="#B47B94" d="M115.1,30c0,0,41.7,9.8,46.4,1.3c4.7-8.5-12.8-10-12.8-10l-30.6,1L115.1,30z"/>
		<path fill="#FFFFFF" d="M149.3,35.8C149.3,35.8,149.3,35.8,149.3,35.8c-13.8,0-34.2-4.8-34.5-4.8l-1.1-0.3l3.7-9.3l31.3-1l0.1,0
			c0.5,0,11.3,1,13.9,5.9c0.9,1.7,0.8,3.5-0.4,5.5C160.9,34.5,156.6,35.8,149.3,35.8z M116.4,29.3c4.5,1,21.1,4.5,32.9,4.5
			c0,0,0,0,0,0c8,0,10.6-1.6,11.3-2.9c0.8-1.4,0.9-2.6,0.3-3.6c-1.7-3.2-9.4-4.6-12.3-4.9l-29.9,1L116.4,29.3z"/>
	</g>
	<g>
		<path fill="#96C4DD" d="M405.3,18.7c0,0,28.2,19.7,36.7,17.2s23.4-15.1,23.4-15.1L405.3,18.7z"/>
		<path fill="#FFFFFF" d="M440.3,37.2L440.3,37.2c-10.2,0-34.5-16.9-35.5-17.6l-2.8-1.9l66.1,2.3l-2,1.7
			c-0.6,0.5-15.2,12.7-23.7,15.3C441.7,37.1,441.1,37.2,440.3,37.2z M408.8,19.9c6.8,4.5,23.9,15.3,31.5,15.3c0,0,0,0,0,0
			c0.6,0,1-0.1,1.5-0.2c6.3-1.9,16.6-9.8,21-13.2L408.8,19.9z"/>
	</g>
	<g>
		<path fill="#96C4DD" d="M339.5,30.9c0,0,29.7,10,37.1,6.4c7.5-3.6,10.2-13.5,10.2-13.5l-12.4-7.4l-14,2.6L339.5,30.9z"/>
		<path fill="#FFFFFF" d="M371.9,39.1C371.9,39.1,371.9,39.1,371.9,39.1c-11.1,0-31.8-7-32.7-7.2l-2.1-0.7l23-13l14.6-2.7l13.3,8
			l-0.2,0.7c-0.1,0.4-2.9,10.4-10.7,14.1C375.9,38.8,374.2,39.1,371.9,39.1z M342,30.6c5.7,1.8,21.2,6.4,29.9,6.4c0,0,0,0,0,0
			c1.9,0,3.4-0.2,4.3-0.7c5.8-2.8,8.6-9.9,9.4-12.1l-11.3-6.8L360.8,20L342,30.6z"/>
	</g>
	<g>
		<path fill="#F1E081" d="M281.3,29.5c0,0,29.1,11.5,43,11.2c13.9-0.4,28.7-19.3,28.7-19.3L281.3,29.5z"/>
		<path fill="#FFFFFF" d="M323.7,41.7C323.7,41.7,323.7,41.7,323.7,41.7c-14.2,0-41.6-10.8-42.7-11.3l-3.7-1.5l78-8.8l-1.5,1.9
			c-0.6,0.8-15.3,19.3-29.5,19.7C324.1,41.7,323.9,41.7,323.7,41.7z M285.5,30c8.2,3,27.4,9.7,38.1,9.7c0,0,0,0,0,0
			c0.2,0,0.4,0,0.6,0c10.7-0.3,22.2-12.3,26.4-17L285.5,30z"/>
	</g>
	<g>
		<path fill="#96C4DD" d="M464.1,10.1c0,0.6,0.2,1.3,0.7,1.8c2.2,2.5,9.4,10.4,14.7,10.1c5.1-0.3,12.9-5.1,15.7-6.8
			c0.6-0.4,1.1-1.1,1.2-1.8l1-5.8c0.3-1.7-1-3.2-2.7-3.2h-27.9c-1.5,0-2.7,1.2-2.7,2.7V10.1z"/>
		<path fill="#FFFFFF" d="M479.1,22.9L479.1,22.9c-5.6,0-12.4-7.3-15.1-10.4c-0.6-0.7-0.9-1.5-0.9-2.4V7c0-2,1.7-3.7,3.7-3.7h27.9
			c1.1,0,2.1,0.5,2.8,1.3c0.7,0.8,1,1.9,0.8,3l-1,5.8c-0.2,1-0.8,1.9-1.7,2.5c-3.1,2-10.9,6.6-16.2,7
			C479.4,22.9,479.2,22.9,479.1,22.9z M466.8,5.3c-0.9,0-1.7,0.8-1.7,1.7v3c0,0.4,0.1,0.8,0.4,1.1c4,4.7,9.7,9.7,13.6,9.7
			c0.1,0,0.2,0,0.3,0c5-0.3,12.9-5.2,15.2-6.7c0.4-0.3,0.7-0.7,0.8-1.2l1-5.8c0.1-0.5-0.1-1-0.4-1.4c-0.3-0.4-0.8-0.6-1.3-0.6H466.8
			z"/>
	</g>
	<g>
		<path fill="#B47B94" d="M438,21.9c0,0,24.3,7,30.1,0.8c5.9-6.2,1.8-15.3,1.8-15.3l-2.3-3h-22.6L438,21.9z"/>
		<path fill="#FFFFFF" d="M458.8,26.2C458.8,26.2,458.8,26.2,458.8,26.2c-9.2,0-20.6-3.3-21.1-3.4l-1.1-0.3l7.8-19.2h23.8l2.7,3.6
			c0.2,0.4,4.3,9.8-2,16.4C467,25.3,463.7,26.2,458.8,26.2z M439.3,21.2c3.1,0.8,12.2,3,19.4,3c0,0,0,0,0,0c4.3,0,7.2-0.8,8.6-2.2
			c5-5.3,2-13.2,1.7-14.2l-1.9-2.5h-21.4L439.3,21.2z"/>
	</g>
	<g>
		<path fill="#C25546" d="M422,21.4c0,0,26.7,11.1,30.3,4.4s0-17.7,0-17.7L422,21.4z"/>
		<path fill="#FFFFFF" d="M446.7,28.9L446.7,28.9c-9,0-24.4-6.3-25.1-6.6l-2.2-0.9l33.4-14.7l0.3,1c0.2,0.5,3.7,11.6-0.1,18.5
			C452.2,28.1,450.1,28.9,446.7,28.9z M424.7,21.4c4.6,1.8,15.4,5.6,22.1,5.6l0,0c1.7,0,4-0.3,4.7-1.6c2.7-5,1-13,0.2-15.8
			L424.7,21.4z"/>
	</g>
	<g>
		<path fill="#C5D455" d="M409.4,11.6c0,0,30.7,12.3,42,3.6s9-11,9-11h-46.5L409.4,11.6z"/>
		<path fill="#FFFFFF" d="M439.5,19.4C439.5,19.4,439.5,19.4,439.5,19.4c-13.4,0-29.8-6.5-30.5-6.8l-1.1-0.4l5.4-8.8h47.5l0.3,0.3
			c0.1,0.1,0.5,0.6,0.5,1.5c-0.2,2.5-3.4,6.1-9.6,10.9C449.2,18.2,445,19.4,439.5,19.4z M410.9,11.1c3.9,1.5,17.6,6.2,28.6,6.2
			c0,0,0,0,0,0c5,0,8.8-1,11.3-2.9c7.2-5.5,8.5-8.2,8.8-9.2h-45.1L410.9,11.1z"/>
	</g>
	<g>
		<path fill="#F1E081" d="M405.3,25.8c0,0,28-0.7,28.9-5.2S418.4,7.3,418.4,7.3L405.3,25.8z"/>
		<path fill="#FFFFFF" d="M403.4,26.9l14.8-20.8l0.8,0.4c2.9,1.5,17.3,9.3,16.3,14.3c-1,5-23.1,5.9-29.9,6L403.4,26.9z M418.7,8.6
			l-11.4,16.1c13.9-0.5,25.6-2.4,26-4.4C433.7,18.1,426.2,12.6,418.7,8.6z"/>
	</g>
	<g>
		<path fill="#96C4DD" d="M395.4,21.9c0,0,19.4,1.7,20.8-5c1.4-6.7,5.9-12.6,5.9-12.6h-29.8L395.4,21.9z"/>
		<path fill="#FFFFFF" d="M400.4,23.1C400.4,23.1,400.4,23.1,400.4,23.1c-2.9,0-5-0.2-5.1-0.2l-0.8-0.1L391,3.3h33l-1.2,1.6
			c0,0.1-4.4,5.8-5.7,12.1C416.1,22,407.5,23.1,400.4,23.1z M396.2,20.9c0.9,0.1,2.4,0.1,4.2,0.1c8.8,0,14.2-1.6,14.8-4.4
			c1-4.8,3.5-9.1,4.9-11.4h-26.7L396.2,20.9z"/>
	</g>
	<g>
		<path fill="#B47B94" d="M362.4,21.8c0,0,45.2,12.2,48.3,7.2C413.9,24.1,399,11,399,11l-19.2-1.9L362.4,21.8z"/>
		<path fill="#FFFFFF" d="M406,31.2C406,31.2,406,31.2,406,31.2c-12.4,0-42.5-8.1-43.8-8.4l-2-0.5L379.5,8l19.9,2l0.2,0.2
			c0.2,0.1,3.8,3.4,7.2,7.3c4.8,5.6,6.4,9.6,4.8,12.1C410.9,30.7,409.1,31.2,406,31.2z M364.7,21.4c7.1,1.8,31,7.8,41.3,7.8h0
			c3.4,0,3.9-0.7,4-0.7c1.8-2.9-5.4-11.3-11.3-16.6l-18.5-1.8L364.7,21.4z"/>
	</g>
	<g>
		<path fill="#F1E081" d="M353,18.2c0,0,11.8,14,18.2,9.2s12.2-14.9,12.2-14.9L353,18.2z"/>
		<path fill="#FFFFFF" d="M368.1,29.4L368.1,29.4c-6.9,0-15.5-10.1-15.9-10.6l-1.1-1.3l34.2-6.4l-1.1,1.9
			c-0.2,0.4-5.9,10.4-12.5,15.3C370.8,29,369.5,29.4,368.1,29.4z M355,18.8c2.5,2.7,8.5,8.6,13.2,8.6c0,0,0,0,0,0
			c1,0,1.8-0.3,2.5-0.8c4.5-3.4,8.8-9.6,10.8-12.7L355,18.8z"/>
	</g>
	<g>
		<path fill="#C25546" d="M359.7,17.5c0,0,8.5,4.3,13.2,4.4s12.2-9.2,17.6-8s7.5-6.6,7.5-6.6v-3h-36.3L359.7,17.5z"/>
		<path fill="#FFFFFF" d="M373,22.9C373,22.9,373,22.9,373,22.9L373,22.9c-5,0-13.3-4.3-13.7-4.5l-0.6-0.3l2.3-14.8H399l0,4.3
			c-0.1,0.3-2,7.4-7.3,7.4c-0.4,0-0.9-0.1-1.4-0.2c-0.3-0.1-0.5-0.1-0.8-0.1c-2.4,0-5.5,2.1-8.4,4.1C378.2,20.9,375.4,22.9,373,22.9
			z M360.8,16.9c2,1,8.4,3.9,12.1,3.9l0,1v-1h0c1.8,0,4.5-1.8,7-3.6c3.2-2.2,6.5-4.5,9.5-4.5c0.4,0,0.9,0,1.3,0.1
			c0.3,0.1,0.6,0.1,0.9,0.1c3.4,0,5.1-5,5.3-5.8V5.3h-34.4L360.8,16.9z"/>
	</g>
	<g>
		<path fill="#96C4DD" d="M318.4,25.8c0,0,29.5,4.3,32.5-9s-19.1-5.2-19.1-5.2L318.4,25.8z"/>
		<path fill="#FFFFFF" d="M328.6,27.5C328.6,27.5,328.6,27.5,328.6,27.5c-5.7,0-10.1-0.6-10.3-0.7l-1.9-0.3l14.9-15.8l0.2-0.1
			c0.3-0.1,6.9-2.5,12.5-2.5c3.3,0,5.7,0.8,7,2.5c1.2,1.5,1.5,3.6,0.9,6.3C349.9,25.7,338.1,27.5,328.6,27.5z M320.5,25.1
			c1.8,0.2,4.8,0.4,8.1,0.4c0,0,0,0,0,0c8.8,0,19.7-1.5,21.4-8.9c0.5-2.1,0.3-3.6-0.5-4.6c-0.9-1.2-2.8-1.8-5.5-1.8
			c-4.7,0-10.4,1.9-11.6,2.3L320.5,25.1z"/>
	</g>
	<g>
		<path fill="#C5D455" d="M331.8,12.8c0,0,16.1,15.7,29.3,10.2c13.2-5.5,13.2-18.7,13.2-18.7h-42.5V12.8z"/>
		<path fill="#FFFFFF" d="M355,25.2L355,25.2c-11.9,0-23.4-11.2-23.9-11.6l-0.3-0.3v-10h44.5v1c0,0.1-0.2,13.9-13.8,19.6
			C359.5,24.8,357.3,25.2,355,25.2z M332.8,12.4c1.9,1.7,12.2,10.8,22.2,10.8c2,0,3.9-0.4,5.7-1.1c10.5-4.4,12.2-13.7,12.5-16.8
			h-40.4V12.4z"/>
	</g>
	<g>
		<path fill="#C25546" d="M284,22.4c0,0,28.3,10,36.4,7.1S333.3,8,333.3,8L284,22.4z"/>
		<path fill="#FFFFFF" d="M316.5,31C316.5,31,316.5,31,316.5,31c-10.9,0-31.9-7.4-32.8-7.7l-2.9-1l54-15.8l-0.4,1.7
			c-0.2,0.8-5,19.2-13.5,22.2C319.6,30.8,318.2,31,316.5,31z M287.3,22.5c6.3,2.1,21,6.5,29.2,6.6c0,0,0,0,0,0
			c1.5,0,2.7-0.2,3.6-0.5c6.1-2.2,10.4-14.5,11.8-19.1L287.3,22.5z"/>
	</g>
	<g>
		<path fill="#F1E081" d="M311.1,15.2c0,0,15.4,6,20.4,4c5.1-2,7.1-14.9,7.1-14.9h-24.1L311.1,15.2z"/>
		<path fill="#FFFFFF" d="M328.8,20.6L328.8,20.6c-6.5,0-17.6-4.3-18-4.5l-0.9-0.3l4-12.5h26l-0.2,1.2c-0.2,1.4-2.3,13.5-7.7,15.7
			C331.1,20.5,330.1,20.6,328.8,20.6z M312.4,14.6c2.7,1,11.3,4,16.4,4c1,0,1.8-0.1,2.4-0.4c3.4-1.4,5.5-9,6.3-13h-22.1L312.4,14.6z
			"/>
	</g>
	<g>
		<path fill="#B47B94" d="M311.4,12.8c0,0-0.9,13.6-5,16.7c-4.1,3.1-25.1,0-25.1,0L311.4,12.8z"/>
		<path fill="#FFFFFF" d="M298.1,31.9c-7.4,0-16.8-1.4-16.9-1.4l-2.9-0.4l34.2-19l-0.1,1.8c-0.1,1.4-1.1,14.1-5.4,17.4
			C305.6,31.4,302.7,31.9,298.1,31.9z M284.5,28.9c3.3,0.4,8.9,1,13.6,1c5.4,0,7.1-0.7,7.7-1.2c2.6-2,3.9-9.7,4.4-14.1L284.5,28.9z"
			/>
	</g>
	<g>
		<path fill="#96C4DD" d="M267.3,11c0,0,23.3,13.7,37.8,11.4s18.5-18.1,18.5-18.1h-57.2L267.3,11z"/>
		<path fill="#FFFFFF" d="M301.5,23.7C301.5,23.7,301.5,23.7,301.5,23.7c-14.5,0-33.9-11.3-34.8-11.8l-0.4-0.2l-1.2-8.4h59.7
			l-0.3,1.2c0,0.2-4.4,16.5-19.3,18.9C304.1,23.6,302.8,23.7,301.5,23.7z M268.2,10.4c2.9,1.7,20.5,11.3,33.3,11.3
			c1.2,0,2.3-0.1,3.4-0.3c11.3-1.8,16-12.5,17.3-16.1h-54.7L268.2,10.4z"/>
	</g>
	<g>
		<path fill="#C5D455" d="M253.9,27.4c0,0,36.9,10.3,38.1,4c1.3-6.3,5.4-17.7,3.3-20.6s-26.6,3.6-26.6,3.6L253.9,27.4z"/>
		<path fill="#FFFFFF" d="M286.2,34.4C286.2,34.4,286.2,34.4,286.2,34.4c-10.7,0-31.7-5.8-32.6-6.1l-1.8-0.5l16.4-14.4l0.2-0.1
			c0.7-0.2,16.6-4.4,23.8-4.4c2.1,0,3.3,0.4,3.9,1.2c1.6,2.3,0.4,7.6-1.7,15.3c-0.6,2.2-1.1,4.3-1.5,6
			C292.4,34.4,287.8,34.4,286.2,34.4z M255.9,26.9c5.4,1.4,21.6,5.5,30.3,5.5c0,0,0,0,0,0c3.4,0,4.7-0.6,4.8-1.2
			c0.4-1.8,0.9-3.9,1.5-6.2c1.3-5,3.2-11.9,2-13.6l0,0c0,0-0.4-0.3-2.3-0.3c-6.5,0-21,3.7-23,4.2L255.9,26.9z"/>
	</g>
	<g>
		<path fill="#B47B94" d="M223,32.4c0,0,40.9,9.9,44.3-14.5S235,19.3,235,19.3L223,32.4z"/>
		<path fill="#FFFFFF" d="M240.5,35.4C240.5,35.4,240.5,35.4,240.5,35.4c-9.4,0-17.4-1.9-17.8-2l-1.6-0.4l13.3-14.5
			c0.7-0.5,16.8-12.1,26.5-12.1c2.5,0,4.4,0.8,5.7,2.2c1.7,1.9,2.2,5.1,1.6,9.4C266.7,29.4,257.1,35.4,240.5,35.4z M224.9,31.8
			c2.9,0.6,9,1.6,15.6,1.6c10.7,0,23.9-2.7,25.8-15.6c0.5-3.7,0.1-6.3-1.2-7.8c-0.9-1-2.3-1.5-4.2-1.5c-8.7,0-24,10.8-25.3,11.6
			L224.9,31.8z"/>
	</g>
	<g>
		<path fill="#C25546" d="M241.8,16.6c0,0,11.3,9.5,23.5,5.4c12.2-4.1,14.4-11.6,14.4-11.6l-5.1-6.1h-27.9L241.8,16.6z"/>
		<path fill="#FFFFFF" d="M258.9,24C258.9,24,258.9,24,258.9,24c-9.7,0-17.4-6.4-17.7-6.6l-0.6-0.5l5.5-13.6h29l5.7,6.9l-0.1,0.5
			c-0.1,0.3-2.5,8-15,12.3C263.5,23.6,261.2,24,258.9,24z M243,16.3c1.9,1.4,8.3,5.7,15.9,5.7c2.1,0,4.1-0.3,6.1-1
			c9.7-3.3,12.8-8.8,13.6-10.5l-4.4-5.3h-26.7L243,16.3z"/>
	</g>
	<g>
		<path fill="#C5D455" d="M190.3,32.4c0,0,27.6,29.9,44.7-13.1L190.3,32.4z"/>
		<path fill="#FFFFFF" d="M210.8,43.5C210.8,43.5,210.8,43.5,210.8,43.5c-11.5,0-20.8-10-21.2-10.4l-1.1-1.2l48.2-14.2l-0.8,1.9
			C229.6,35.4,221.2,43.5,210.8,43.5z M192.2,32.9c2.8,2.6,10.2,8.6,18.6,8.6c9.1,0,16.6-7,22.5-20.7L192.2,32.9z"/>
	</g>
	<g>
		<path fill="#F1E081" d="M204.9,24.9c0,0,35.5,4.3,40.4-6.6s4.3-14.1,4.3-14.1h-53.3L204.9,24.9z"/>
		<path fill="#FFFFFF" d="M220,26.8C220,26.8,220,26.8,220,26.8c-8.1,0-15.2-0.8-15.3-0.9l-0.6-0.1l-9.4-22.5h55.6l0.2,0.8
			c0.1,0.4,0.6,3.8-4.4,14.7C243.8,24.1,235,26.8,220,26.8z M205.6,24c1.8,0.2,7.8,0.8,14.4,0.8c13.7,0,22.4-2.4,24.4-6.8
			c3.4-7.4,4.1-11.1,4.2-12.6h-50.8L205.6,24z"/>
	</g>
	<g>
		<path fill="#96C4DD" d="M192.3,31.4c0,0,28.2,6.9,30.5-6.3c2.3-13.2-21.6-20.8-21.6-20.8L192.3,31.4z"/>
		<path fill="#FFFFFF" d="M207.2,34.2C207.2,34.2,207.2,34.2,207.2,34.2c-7.6,0-14.9-1.8-15.2-1.8l-1.1-0.3L200.6,3l0.9,0.3
			c1,0.3,24.7,8.1,22.3,22C223.1,29.4,219.7,34.2,207.2,34.2z M193.6,30.6c2.3,0.5,8,1.5,13.6,1.5c0,0,0,0,0,0
			c8.9,0,13.8-2.4,14.6-7.2c1.8-10.7-15.7-17.8-20-19.4L193.6,30.6z"/>
	</g>
	<g>
		<path fill="#C25546" d="M142.4,27.4c0,0,15,9.5,40,9.7c25,0.2,26.4-16.9,26.4-19.2s-50.6,0-50.6,0L142.4,27.4z"/>
		<path fill="#FFFFFF" d="M182.9,38.1C182.9,38.1,182.9,38.1,182.9,38.1l-0.5,0c-25-0.2-39.9-9.4-40.5-9.8l-1.4-0.9l17.4-10.5l0.3,0
			c0.2,0,22.7-1,37.5-1c14.1,0,14.1,0.8,14.1,2c0,0.6-0.1,6-3.9,11.1C201.3,35,193.6,38.1,182.9,38.1z M144.4,27.4
			c4.3,2.3,18,8.5,38,8.7l0.4,0c0,0,0,0,0,0c10,0,17.2-2.8,21.4-8.4c2.9-3.9,3.4-7.9,3.5-9.3c-0.9-0.2-3.6-0.5-12.1-0.5
			c-13.9,0-34.7,0.9-37.2,1L144.4,27.4z"/>
	</g>
	<g>
		<path fill="#B47B94" d="M158.2,14c0,0,60.5,31.6,54.7-9.7h-41.6L158.2,14z"/>
		<path fill="#FFFFFF" d="M196.6,26.6C196.6,26.6,196.6,26.6,196.6,26.6c-16.3,0-37.9-11.2-38.8-11.7l-1.4-0.7L171,3.3h42.8l0.1,0.9
			c1.1,7.7,0,13.5-3.3,17.3C207.6,24.8,202.9,26.6,196.6,26.6z M160.1,13.8c5.1,2.5,23,10.7,36.4,10.7c0,0,0,0,0,0
			c5.7,0,9.9-1.5,12.5-4.5c2.8-3.2,3.7-8.2,2.9-14.8h-40.4L160.1,13.8z"/>
	</g>
	<g>
		<path fill="#C5D455" d="M151.4,22.4c0,0,24.4,9,32,9c8.8,0-13.6-27.1-6.1-27.1s-28.6,0-28.6,0L151.4,22.4z"/>
		<path fill="#FFFFFF" d="M183.5,32.4c-7.7,0-31.4-8.7-32.4-9l-0.6-0.2l-3-19.9h29.8v2c-0.1,0-0.4,0-0.5,0.1
			c-0.7,1.2,2.4,7.2,4.5,11.1c3.9,7.5,6.2,12.1,4.8,14.6C185.8,31.7,185,32.4,183.5,32.4z M152.3,21.7c3.7,1.3,24.4,8.7,31.1,8.7
			c0.8,0,0.9-0.2,0.9-0.3c1-1.6-2.4-8-4.8-12.6c-3.1-5.9-5.1-9.9-4.7-12.2h-25L152.3,21.7z M178.4,5.3h-1v-2h1V5.3z"/>
	</g>
	<g>
		<path fill="#96C4DD" d="M115.1,23.9c0,0,32.4,6.5,38.7,2.9c6.3-3.6,11.8-5.6,11.1-13.7c-0.7-7.4-18-5.6-18-5.6l-19.1,2.1
			L115.1,23.9z"/>
		<path fill="#FFFFFF" d="M146.6,28.9C146.6,28.9,146.6,28.9,146.6,28.9c-11.6,0-30.9-3.9-31.7-4l-1.7-0.3l14.2-15.9l19.5-2.1
			c0.1,0,2-0.2,4.5-0.2c9.1,0,14.1,2.3,14.5,6.7c0.7,7.8-4,10.5-9.5,13.5c-0.7,0.4-1.3,0.7-2,1.1C152.9,28.5,150.3,28.9,146.6,28.9z
			 M117,23.3c5.1,1,20.1,3.6,29.6,3.6c0,0,0,0,0,0c4.2,0,6-0.5,6.7-1c0.7-0.4,1.4-0.8,2.1-1.2c5.3-2.9,9.1-5,8.5-11.6
			c-0.4-4.4-8.9-4.8-12.5-4.8c-2.5,0-4.3,0.2-4.3,0.2l-18.7,2L117,23.3z"/>
	</g>
	<g>
		<path fill="#C25546" d="M84.6,16.8c0,0,13.9,15.3,30.5,18.4c9.8,1.9,9.5-20.5,16.3-24.6c6.8-4.2-22.3-1.8-22.3-1.8L84.6,16.8z"/>
		<path fill="#FFFFFF" d="M116.2,36.4C116.2,36.4,116.2,36.4,116.2,36.4c-0.4,0-0.9,0-1.3-0.1c-16.7-3.2-30.5-18.1-31-18.7l-1-1.1
			L109,7.8c0.1,0,8.3-0.7,14.9-0.7c8.2,0,9.1,1,9.4,2c0.3,1.2-1,2.1-1.4,2.3c-2.5,1.5-4.1,6.4-5.6,11.2
			C124.1,29.4,121.8,36.4,116.2,36.4z M86.4,17.3c3.6,3.5,15.4,14.4,28.8,17c0.3,0.1,0.6,0.1,0.9,0.1c4.1,0,6.2-6.3,8.1-12.4
			c1.7-5.3,3.3-10.3,6.5-12.3c0.1,0,0.1-0.1,0.2-0.1c-0.8-0.2-2.7-0.5-7.1-0.5c-6.1,0-13.6,0.6-14.6,0.6L86.4,17.3z"/>
	</g>
	<g>
		<path fill="#F1E081" d="M119.8,10.8c0,0,5.8,9.1,11.5,8.4c5.8-0.7,21,0.4,22-4.2c1-4.6,0-10.7,0-10.7h-35.2L119.8,10.8z"/>
		<path fill="#FFFFFF" d="M130.7,20.3C130.7,20.3,130.7,20.3,130.7,20.3c-6,0-11.5-8.6-11.7-8.9l-0.1-0.3l-2-7.8h37.4l0.1,0.8
			c0,0.3,1,6.3,0,11.1c-0.9,4.2-9.5,4.5-17.1,4.7c-2.2,0.1-4.3,0.1-5.7,0.3C131.2,20.2,131,20.3,130.7,20.3z M120.7,10.4
			c0.7,1,5.4,7.9,10,7.9h0c0.2,0,0.3,0,0.5,0c1.5-0.2,3.5-0.2,5.9-0.3c5.5-0.2,14.7-0.4,15.2-3.1c0.7-3.4,0.3-7.7,0.1-9.5h-33.1
			L120.7,10.4z"/>
	</g>
	<g>
		<path fill="#B47B94" d="M84.6,11c0,0,14.6,6.5,18,6.8s22.4,0.6,24.4-6.8s0-6.7,0-6.7H84.6V11z"/>
		<path fill="#FFFFFF" d="M106.2,19C106.2,19,106.2,19,106.2,19c-1.7,0-3.1-0.1-3.8-0.1C99,18.5,85.7,12.6,84.2,12l-0.6-0.3V3.3
			h43.3c0.1,0,0.1,0,0.2,0c0.5,0,0.9,0.2,1.3,0.6c0.6,0.7,1,2.2-0.4,7.4C126,18.2,112.1,19,106.2,19z M85.6,10.4
			c4.4,1.9,14.5,6.2,17.1,6.5c0.6,0.1,1.9,0.1,3.6,0.1c8.7,0,18.5-1.6,19.8-6.2c1-3.7,0.9-5.1,0.8-5.5H85.6V10.4z"/>
	</g>
	<g>
		<path fill="#96C4DD" d="M57.5,13.1c5.6,3.4,0,7.2,14.6,8.2s22-3.7,22.7-8.2s9.8-8.2,9.8-8.2l2.4-0.7H59.8L57.5,13.1z"/>
		<path fill="#FFFFFF" d="M75.8,22.4C75.8,22.4,75.8,22.4,75.8,22.4c-1.2,0-2.5,0-3.8-0.1c-9.4-0.6-10.9-2.4-12.3-5.2
			C59.1,16,58.7,15,57,14l-0.6-0.4l2.8-10.3h55l-9.2,2.6c-2.4,1-8.7,4.2-9.2,7.4C95,17.8,88.6,22.4,75.8,22.4z M58.6,12.7
			c1.7,1.2,2.3,2.5,2.8,3.6c0.9,1.9,1.7,3.4,10.6,4c1.3,0.1,2.5,0.1,3.7,0.1c11,0,17.4-3.7,18-7.4c0.5-3.4,4.8-6.1,7.8-7.7H60.6
			L58.6,12.7z"/>
	</g>
	<g>
		<path fill="#C25546" d="M32.4,4.3c0,0,10.8,17.3,21,16.3s20-16.3,20-16.3H32.4z"/>
		<path fill="#FFFFFF" d="M52.5,21.6C52.5,21.6,52.5,21.6,52.5,21.6c-10.3,0-20.6-16.1-21-16.8l-1-1.5h44.6l-1,1.5
			C73.8,5.5,64,20.5,53.5,21.6C53.2,21.6,52.9,21.6,52.5,21.6z M34.3,5.3c2.8,4,10.8,14.3,18.3,14.3c0,0,0,0,0,0c0.3,0,0.5,0,0.8,0
			C61,18.8,68.7,9.1,71.5,5.3H34.3z"/>
	</g>
</g>
</svg>
