<?xml version="1.0" encoding="utf-8"?>
<!-- Generator: Adobe Illustrator 17.1.0, SVG Export Plug-In . SVG Version: 6.00 Build 0)  -->
<!DOCTYPE svg PUBLIC "-//W3C//DTD SVG 1.1//EN" "http://www.w3.org/Graphics/SVG/1.1/DTD/svg11.dtd">
<svg version="1.1" id="Слой_1" xmlns="http://www.w3.org/2000/svg" xmlns:xlink="http://www.w3.org/1999/xlink" x="0px" y="0px"
	 viewBox="0 0 30 30" enable-background="new 0 0 30 30" xml:space="preserve">
<path fill="#ECDE85" d="M15,2c7.2,0,13,5.8,13,13s-5.8,13-13,13S2,22.2,2,15S7.8,2,15,2 M15,0C6.7,0,0,6.7,0,15s6.7,15,15,15
	s15-6.7,15-15S23.3,0,15,0L15,0z"/>
<path fill="#ECDE85" d="M20,14h-4v-4c0-0.6-0.4-1-1-1s-1,0.4-1,1v4h-4c-0.6,0-1,0.4-1,1s0.4,1,1,1h4v4c0,0.6,0.4,1,1,1s1-0.4,1-1v-4
	h4c0.6,0,1-0.4,1-1S20.6,14,20,14z"/>
</svg>
