<?xml version="1.0" encoding="utf-8"?>
<!-- Generator: Adobe Illustrator 17.1.0, SVG Export Plug-In . SVG Version: 6.00 Build 0)  -->
<!DOCTYPE svg PUBLIC "-//W3C//DTD SVG 1.1//EN" "http://www.w3.org/Graphics/SVG/1.1/DTD/svg11.dtd">
<svg version="1.1" id="Слой_1" xmlns="http://www.w3.org/2000/svg" xmlns:xlink="http://www.w3.org/1999/xlink" x="0px" y="0px"
	 viewBox="0 0 20 35" enable-background="new 0 0 20 35" xml:space="preserve">
<path fill="#FFFFFF" d="M10,2c4.4,0,8,3.6,8,8v15c0,4.4-3.6,8-8,8s-8-3.6-8-8V10C2,5.6,5.6,2,10,2 M10,0C4.5,0,0,4.5,0,10v15
	c0,5.5,4.5,10,10,10s10-4.5,10-10V10C20,4.5,15.5,0,10,0L10,0z"/>
<path fill="#FFFFFF" d="M10,15.9c-0.6,0-1-0.4-1-1V7c0-0.6,0.4-1,1-1s1,0.4,1,1v7.9C11,15.4,10.6,15.9,10,15.9z"/>
<path fill="#FFFFFF" d="M10,18c-0.2,0-0.5-0.1-0.7-0.3l-3.1-2.9c-0.4-0.4-0.4-1,0-1.4s1-0.4,1.4,0l2.4,2.3l2.2-2.2
	c0.4-0.4,1-0.4,1.4,0c0.4,0.4,0.4,1,0,1.4l-2.9,2.9C10.5,17.9,10.3,18,10,18z"/>
</svg>
